<?xml version="1.0" encoding="UTF-8"?>
<svg version="1.1" xmlns="http://www.w3.org/2000/svg" width="665" height="375">
<path d="M0 0 C0.64980835 -0.00365067 1.2996167 -0.00730133 1.96911621 -0.01106262 C4.09573341 -0.01910146 6.2215722 -0.00561184 8.34814453 0.0090332 C9.841156 0.00955274 11.33416816 0.00903142 12.82717896 0.00752258 C15.94901815 0.00761202 19.07059757 0.01797968 22.19238281 0.03613281 C26.17208728 0.05877939 30.15141151 0.05936803 34.13116264 0.05261517 C37.2128938 0.04925503 40.29454005 0.05594418 43.37625504 0.0657444 C44.84250569 0.0695645 46.30876584 0.07075802 47.7750206 0.06915855 C67.99515219 0.06547106 67.99515219 0.06547106 74.48095703 5.05981445 C75.10744141 5.51743164 75.73392578 5.97504883 76.37939453 6.4465332 C80.68622304 11.25030346 81.48225548 16.48107181 81.49414062 22.74121094 C81.49939758 23.44139343 81.50465454 24.14157593 81.5100708 24.86297607 C81.52317655 27.15668655 81.51456589 29.44969177 81.50439453 31.7434082 C81.50641822 33.35091789 81.5093321 34.95842667 81.51309204 36.56593323 C81.51750282 39.92734559 81.5111256 43.28851799 81.49707031 46.64990234 C81.47999285 50.94142776 81.48981816 55.23238961 81.5077877 59.52389431 C81.51867121 62.84149863 81.51515812 66.1589712 81.50740433 69.47657967 C81.5054142 71.05809662 81.50781952 72.63962585 81.51484299 74.22112846 C81.57699805 92.15077808 81.57699805 92.15077808 75.79345703 99.18481445 C70.59064299 103.41966309 66.13256458 104.8212845 59.49926758 104.80810547 C58.39310089 104.82321922 58.39310089 104.82321922 57.2645874 104.83863831 C54.84046019 104.86700154 52.41695833 104.872989 49.99267578 104.8762207 C48.2964503 104.88587062 46.60022729 104.89596375 44.90400696 104.90647888 C41.35253109 104.92441164 37.80127378 104.93000294 34.24975586 104.92822266 C29.71689674 104.92791812 25.18545101 104.96885297 20.65292645 105.02053928 C17.1499651 105.05403185 13.64734063 105.0599763 10.14423561 105.05839348 C8.47418158 105.06191477 6.80411706 105.07507827 5.13422203 105.09839058 C-11.09426775 105.3037262 -11.09426775 105.3037262 -17.24223328 100.14915466 C-24.38024566 92.47084434 -23.4824916 83.38247831 -23.42529297 73.46606445 C-23.42799174 71.81514254 -23.43187737 70.16422218 -23.43688965 68.51330566 C-23.44276662 65.0636472 -23.43428039 61.61440478 -23.41552734 58.16479492 C-23.3927385 53.75993477 -23.40587134 49.35604972 -23.4298172 44.95122528 C-23.44432427 41.54523473 -23.43964684 38.13947245 -23.42930603 34.73347473 C-23.42665227 33.11009097 -23.42986058 31.48668596 -23.43922424 29.86332703 C-23.51010568 14.1234663 -23.51010568 14.1234663 -18.89404297 7.37231445 C-13.52521873 2.00349022 -7.44067358 -0.00401893 0 0 Z " fill="#0F474F" transform="translate(111.89404296875,140.627685546875)"/>
<path d="M0 0 C3.63 0 7.26 0 11 0 C10.34 2.97 9.68 5.94 9 9 C8.27167969 8.77054688 7.54335937 8.54109375 6.79296875 8.3046875 C3.96725741 7.73292476 3.96725741 7.73292476 1.61328125 9.2578125 C0.85402344 9.87398437 0.09476563 10.49015625 -0.6875 11.125 C-1.83798828 12.02605469 -1.83798828 12.02605469 -3.01171875 12.9453125 C-5.2054982 15.21236159 -6.15174994 16.97407874 -7 20 C-6.505 20.99 -6.505 20.99 -6 22 C-6.33 22.66 -6.66 23.32 -7 24 C-5.68 24.33 -4.36 24.66 -3 25 C-2.608125 24.175 -2.21625 23.35 -1.8125 22.5 C-1.214375 21.675 -0.61625 20.85 0 20 C2.625 19.625 2.625 19.625 5 20 C6 21 6 21 6.12025452 22.94252014 C6.11803391 23.79301437 6.11581329 24.64350861 6.11352539 25.51977539 C6.11344986 26.48069595 6.11337433 27.44161652 6.11329651 28.43165588 C6.10813522 29.476436 6.10297394 30.52121613 6.09765625 31.59765625 C6.0962413 32.66165146 6.09482635 33.72564667 6.09336853 34.82188416 C6.08775064 38.23545083 6.07519511 41.648953 6.0625 45.0625 C6.05748731 47.37044176 6.052924 49.67838455 6.04882812 51.98632812 C6.0377754 57.65757426 6.02101987 63.32878253 6 69 C1.77562389 70.84852733 -0.61557052 71.09055349 -5.1875 70.25 C-6.75564453 69.97929687 -6.75564453 69.97929687 -8.35546875 69.703125 C-11 69 -11 69 -13 67 C-13.17532289 64.13111419 -13.23137614 61.36007355 -13.1953125 58.4921875 C-13.1924826 57.65156769 -13.18965271 56.81094788 -13.18673706 55.94485474 C-13.1755243 53.25475954 -13.15041803 50.5649949 -13.125 47.875 C-13.1149716 46.05339022 -13.10584551 44.23177523 -13.09765625 42.41015625 C-13.07558142 37.93997642 -13.04104434 33.47004429 -13 29 C-13.66 29 -14.32 29 -15 29 C-14.98428955 30.17095215 -14.9685791 31.3419043 -14.95239258 32.54833984 C-14.89818804 36.88306834 -14.86368463 41.21776676 -14.83520508 45.55273438 C-14.82009675 47.43071526 -14.79960906 49.30866076 -14.77368164 51.18652344 C-14.73738754 53.88225019 -14.72029455 56.57751146 -14.70703125 59.2734375 C-14.69154739 60.11619232 -14.67606354 60.95894714 -14.66011047 61.82723999 C-14.65942383 64.19287109 -14.65942383 64.19287109 -15 68 C-18.69993365 70.46662244 -21.82541608 70.47969937 -26.125 70.6875 C-26.86621094 70.73455078 -27.60742188 70.78160156 -28.37109375 70.83007812 C-30.24533927 70.93458359 -32.12304163 70.97270642 -34 71 C-34.495 70.505 -34.495 70.505 -35 70 C-37.23074644 69.92760255 -39.44492191 70.00350207 -41.67578125 70.0625 C-44 70 -44 70 -46.06640625 69.46484375 C-48.26693261 68.80626611 -48.26693261 68.80626611 -51.625 69.5625 C-53.295625 69.7790625 -53.295625 69.7790625 -55 70 C-57.53054337 67.46945663 -57.25683229 66.56451118 -57.265625 63.0625 C-57.26820312 62.08539063 -57.27078125 61.10828125 -57.2734375 60.1015625 C-57.26570313 59.07804687 -57.25796875 58.05453125 -57.25 57 C-57.25773437 55.97648437 -57.26546875 54.95296875 -57.2734375 53.8984375 C-57.27085938 52.92132813 -57.26828125 51.94421875 -57.265625 50.9375 C-57.26336914 50.03902344 -57.26111328 49.14054687 -57.25878906 48.21484375 C-57 46 -57 46 -55 44 C-51.875 44.375 -51.875 44.375 -49 45 C-48.62875 43.5459375 -48.62875 43.5459375 -48.25 42.0625 C-47 39 -47 39 -44.9375 38.125 C-43.95948052 38.06190197 -42.98005279 38 -42 38 C-41.67 36.68 -41.34 35.36 -41 34 C-41.99 34.66 -42.98 35.32 -44 36 C-45.65549531 36.38499891 -47.3222433 36.72793135 -49 37 C-49.66 35.68 -50.32 34.36 -51 33 C-48.08377998 30.72859261 -45.1669457 28.45797537 -42.25 26.1875 C-41.425 25.54490234 -40.6 24.90230469 -39.75 24.24023438 C-38.95078125 23.61826172 -38.1515625 22.99628906 -37.328125 22.35546875 C-36.5949707 21.78465576 -35.86181641 21.21384277 -35.10644531 20.62573242 C-34.41131836 20.08924072 -33.71619141 19.55274902 -33 19 C-32.30358398 18.44352783 -31.60716797 17.88705566 -30.88964844 17.3137207 C-28.40327284 15.58514356 -26.96748536 15.54346379 -24 16 C-22.1875 17.5 -22.1875 17.5 -21 19 C-17.03542738 17.62900697 -14.27045263 15.8109635 -11.0625 13.125 C-8.24747443 10.78966488 -5.54185461 8.64039945 -2.375 6.8125 C-1.59125 6.214375 -0.8075 5.61625 0 5 C0 3.35 0 1.7 0 0 Z " fill="#3C6065" transform="translate(166,157)"/>
<path d="M0 0 C4.65278853 4.39982139 7.7703458 7.86622442 8.1328125 14.390625 C8.10126328 25.93764093 7.53019061 37.46694406 7 49 C4.03 48.67 1.06 48.34 -2 48 C-2 47.34 -2 46.68 -2 46 C-2.928125 46.474375 -3.85625 46.94875 -4.8125 47.4375 C-12.37640583 50.65292556 -20.33121759 50.72956662 -28 48 C-33.05341272 45.13957771 -36.15245591 42.54263228 -38 37 C-38.53476918 31.02498278 -38.51280722 26.0875139 -35 21 C-30.52846298 16.2654314 -25.35501248 15.17015133 -19.02539062 14.92285156 C-14.34803424 14.83639006 -9.67660391 14.89671304 -5 15 C-5.35202945 12.54135426 -5.35202945 12.54135426 -6 10 C-10.27527851 7.10384359 -16.02829804 7.42571099 -21 8 C-23.79897943 9.46111016 -23.79897943 9.46111016 -26 11 C-30.18447657 11 -33.0371654 7.62614885 -36 5 C-34.54663682 1.19202609 -32.82091882 0.03932723 -29.1875 -1.6875 C-27.90939453 -2.31205078 -27.90939453 -2.31205078 -26.60546875 -2.94921875 C-17.96166533 -6.43525041 -7.58093224 -5.60190993 0 0 Z M-27 29 C-27.75015195 31.95691709 -27.75015195 31.95691709 -27 35 C-24.82202763 37.758765 -23.13267929 38.81530354 -19.65234375 39.3828125 C-13.91763105 39.64230176 -10.49681936 38.82229645 -6 35 C-3.66721267 33.10892859 -3.66721267 33.10892859 -3.8125 29.9375 C-3.66812207 27.11166864 -3.66812207 27.11166864 -5 26 C-7.95028374 25.84612362 -10.86098588 25.76828979 -13.8125 25.75 C-14.63298828 25.729375 -15.45347656 25.70875 -16.29882812 25.6875 C-22.29534638 25.57138056 -22.29534638 25.57138056 -27 29 Z " fill="#010202" transform="translate(441,181)"/>
<path d="M0 0 C3.63 0 7.26 0 11 0 C12.29487016 3.88461047 12.1232604 7.55883956 12.09765625 11.60546875 C12.0962413 12.44467361 12.09482635 13.28387848 12.09336853 14.14851379 C12.08777215 16.82821216 12.07522035 19.5078269 12.0625 22.1875 C12.05748453 24.00455608 12.05292171 25.82161348 12.04882812 27.63867188 C12.03780391 32.09248013 12.02054178 36.54622589 12 41 C16.75095885 38.77240562 19.16616534 36.99736701 22.125 32.625 C23.41292252 30.7474262 24.70454204 28.87238256 26 27 C26.60070312 26.06542969 27.20140625 25.13085938 27.8203125 24.16796875 C30 22 30 22 33.234375 21.51171875 C34.39453125 21.56972656 35.5546875 21.62773437 36.75 21.6875 C38.50570312 21.75517578 38.50570312 21.75517578 40.296875 21.82421875 C41.18890625 21.88222656 42.0809375 21.94023437 43 22 C41.72094438 25.55776151 40.24549369 28.24919038 37.875 31.1875 C37.26269531 31.95320313 36.65039062 32.71890625 36.01953125 33.5078125 C35.01986328 34.74144531 35.01986328 34.74144531 34 36 C32.52049651 37.85389792 31.04132397 39.70806 29.5625 41.5625 C28.37561734 43.04216207 27.18834574 44.5215127 26 46 C30.28141763 51.91740648 34.90031567 57.51220875 39.6328125 63.0703125 C46 70.95049505 46 70.95049505 46 74 C41.33501787 75.09943932 37.6416044 75.29848641 33 74 C28.24670536 70.08253322 24.85262641 64.82683277 21.32373047 59.83398438 C19.71107282 57.59970104 18.20636456 55.66968129 16 54 C13.90294496 54.36647272 13.90294496 54.36647272 12 55 C12.02320313 56.27617187 12.04640625 57.55234375 12.0703125 58.8671875 C12.08906829 60.5364525 12.10726869 62.2057238 12.125 63.875 C12.14175781 64.71675781 12.15851562 65.55851562 12.17578125 66.42578125 C12.18222656 67.23144531 12.18867187 68.03710938 12.1953125 68.8671875 C12.20578613 69.61081543 12.21625977 70.35444336 12.22705078 71.12060547 C12 73 12 73 10 75 C7.6171875 74.9765625 7.6171875 74.9765625 4.875 74.625 C3.96492187 74.51414062 3.05484375 74.40328125 2.1171875 74.2890625 C1.41851562 74.19367188 0.71984375 74.09828125 0 74 C-1.05578603 57.694216 -0.95289729 41.5163393 -0.5625 25.1875 C-0.50910419 22.72983199 -0.45636602 20.2721496 -0.40429688 17.81445312 C-0.27708554 11.87610959 -0.14106939 5.93802982 0 0 Z " fill="#010202" transform="translate(509,155)"/>
<path d="M0 0 C3.63 0 7.26 0 11 0 C11.33 0.66 11.66 1.32 12 2 C12.85722656 1.67644531 13.71445312 1.35289062 14.59765625 1.01953125 C20.86788683 -0.85937826 28.60607064 -1.2033652 34.875 1 C41.13771108 5.00813509 45.04136832 9.81072465 47 17 C47.16237778 19.78486623 47.23437565 22.46222484 47.1953125 25.2421875 C47.1924826 26.01055939 47.18965271 26.77893127 47.18673706 27.57058716 C47.17561311 30.00555521 47.1505236 32.44014462 47.125 34.875 C47.11496011 36.53384882 47.10583603 38.19270346 47.09765625 39.8515625 C47.07569937 43.90118579 47.04122406 47.95052887 47 52 C43.37 52 39.74 52 36 52 C35.98598145 50.54762939 35.98598145 50.54762939 35.97167969 49.06591797 C35.93163217 45.45364353 35.86583446 41.84220765 35.79248047 38.23046875 C35.76435587 36.6710085 35.74309911 35.11140796 35.72900391 33.55175781 C35.70745458 31.30200827 35.66074943 29.05393026 35.609375 26.8046875 C35.60814636 26.1138205 35.60691772 25.42295349 35.60565186 24.71115112 C35.4570591 19.735874 34.17628594 16.80476051 31 13 C28.21398777 12.07132926 26.38933911 11.83657783 23.5 11.8125 C22.7265625 11.79832031 21.953125 11.78414062 21.15625 11.76953125 C18.70319944 11.86338472 18.70319944 11.86338472 16 14 C15.01 14 14.02 14 13 14 C12.00971008 18.17565567 11.81798107 22.16824304 11.71875 26.453125 C11.70034058 27.15395203 11.68193115 27.85477905 11.66296387 28.57684326 C11.58459691 31.56019507 11.51620256 34.54375015 11.44775391 37.52734375 C11.39618877 39.71105648 11.33892295 41.89456644 11.28125 44.078125 C11.23581055 46.03347168 11.23581055 46.03347168 11.18945312 48.02832031 C11 51 11 51 10 52 C8.14712498 52.07226502 6.29166122 52.0838122 4.4375 52.0625 C3.42558594 52.05347656 2.41367187 52.04445312 1.37109375 52.03515625 C0.58863281 52.02355469 -0.19382812 52.01195312 -1 52 C-1.13957359 34.6370453 -0.79486401 17.3450683 0 0 Z " fill="#111212" transform="translate(272,177)"/>
<path d="M0 0 C1.37478516 0.01740234 1.37478516 0.01740234 2.77734375 0.03515625 C3.69644531 0.04417969 4.61554688 0.05320313 5.5625 0.0625 C6.27277344 0.07410156 6.98304688 0.08570313 7.71484375 0.09765625 C9.43638559 5.57405705 8.77150925 11.43110641 8.71484375 17.09765625 C14.65484375 17.42765625 20.59484375 17.75765625 26.71484375 18.09765625 C26.8125 26.59375 26.8125 26.59375 26.71484375 29.09765625 C25.71484375 30.09765625 25.71484375 30.09765625 23.94897461 30.21118164 C23.20010986 30.20594482 22.45124512 30.20070801 21.6796875 30.1953125 C20.87080078 30.19208984 20.06191406 30.18886719 19.22851562 30.18554688 C18.37837891 30.17716797 17.52824219 30.16878906 16.65234375 30.16015625 C15.79833984 30.15564453 14.94433594 30.15113281 14.06445312 30.14648438 C11.94788712 30.13465998 9.8313569 30.11672394 7.71484375 30.09765625 C7.79605081 33.49444428 7.90886394 36.88948007 8.02734375 40.28515625 C8.04990234 41.24486328 8.07246094 42.20457031 8.09570312 43.19335938 C8.32251508 50.144326 8.32251508 50.144326 11.71484375 56.09765625 C16.17366864 58.79997436 21.62329408 58.72196909 26.71484375 59.09765625 C28.11222002 62.85310496 29.27401483 66.07162447 28.71484375 70.09765625 C24.42322148 72.95873777 20.74951046 72.56965625 15.71484375 72.09765625 C9.77196297 70.83479408 4.64679156 67.75900887 0.71484375 63.09765625 C0.0234375 60.90625 0.0234375 60.90625 -0.28515625 59.09765625 C-0.94515625 59.09765625 -1.60515625 59.09765625 -2.28515625 59.09765625 C-3.53921763 53.31119981 -3.39702538 47.60897509 -3.34765625 41.72265625 C-3.34314453 40.70042969 -3.33863281 39.67820313 -3.33398438 38.625 C-3.32225925 36.11582431 -3.30584801 33.60677135 -3.28515625 31.09765625 C-6.25515625 30.76765625 -9.22515625 30.43765625 -12.28515625 30.09765625 C-12.31202904 28.28523573 -12.3314934 26.47270392 -12.34765625 24.66015625 C-12.35925781 23.65082031 -12.37085938 22.64148438 -12.3828125 21.6015625 C-12.28515625 19.09765625 -12.28515625 19.09765625 -11.28515625 18.09765625 C-8.61456774 17.95650464 -5.96083387 18.05518518 -3.28515625 18.09765625 C-3.30255859 16.27427734 -3.30255859 16.27427734 -3.3203125 14.4140625 C-3.32968903 12.82942861 -3.33878938 11.24479307 -3.34765625 9.66015625 C-3.35603516 8.85771484 -3.36441406 8.05527344 -3.37304688 7.22851562 C-3.38167055 5.18470404 -3.33743775 3.14081723 -3.28515625 1.09765625 C-2.28515625 0.09765625 -2.28515625 0.09765625 0 0 Z " fill="#010102" transform="translate(332.28515625,158.90234375)"/>
<path d="M0 0 C1 3 1 3 0 6 C-0.804375 6.12375 -1.60875 6.2475 -2.4375 6.375 C-3.283125 6.58125 -4.12875 6.7875 -5 7 C-5.33 7.66 -5.66 8.32 -6 9 C-6.66 9 -7.32 9 -8 9 C-8.33 9.66 -8.66 10.32 -9 11 C-10.64363134 11.72159424 -12.31050386 12.39351421 -14 13 C-13.99476318 14.08531006 -13.98952637 15.17062012 -13.98413086 16.28881836 C-13.96608164 20.30117982 -13.95456829 24.31353767 -13.94506836 28.32592773 C-13.94002796 30.06519168 -13.9331957 31.80445136 -13.92456055 33.54370117 C-13.91248208 36.03825937 -13.90676892 38.53276173 -13.90234375 41.02734375 C-13.89718246 41.80963852 -13.89202118 42.59193329 -13.88670349 43.39793396 C-13.88650774 45.26567114 -13.93800306 47.13329204 -14 49 C-15.65606367 50.65606367 -17.72865002 50.39915554 -20 50.625 C-20.9075 50.72039062 -21.815 50.81578125 -22.75 50.9140625 C-23.86375 50.95660156 -23.86375 50.95660156 -25 51 C-25.495 50.505 -25.495 50.505 -26 50 C-28.23074644 49.92760255 -30.44492191 50.00350207 -32.67578125 50.0625 C-35 50 -35 50 -37.06640625 49.46484375 C-39.26693261 48.80626611 -39.26693261 48.80626611 -42.625 49.5625 C-43.73875 49.706875 -44.8525 49.85125 -46 50 C-48.53054337 47.46945663 -48.25683229 46.56451118 -48.265625 43.0625 C-48.26820312 42.08539063 -48.27078125 41.10828125 -48.2734375 40.1015625 C-48.26570313 39.07804687 -48.25796875 38.05453125 -48.25 37 C-48.25773437 35.97648437 -48.26546875 34.95296875 -48.2734375 33.8984375 C-48.27085938 32.92132813 -48.26828125 31.94421875 -48.265625 30.9375 C-48.26336914 30.03902344 -48.26111328 29.14054687 -48.25878906 28.21484375 C-48 26 -48 26 -46 24 C-42.875 24.375 -42.875 24.375 -40 25 C-39.62875 23.5459375 -39.62875 23.5459375 -39.25 22.0625 C-38 19 -38 19 -35.9375 18.125 C-34.95948052 18.06190197 -33.98005279 18 -33 18 C-32.67 16.68 -32.34 15.36 -32 14 C-32.99 14.66 -33.98 15.32 -35 16 C-35 13 -35 13 -33.59472656 11.54199219 C-31.48921187 9.93102617 -29.3806269 8.32769604 -27.25 6.75 C-26.52039063 6.1828125 -25.79078125 5.615625 -25.0390625 5.03125 C-24.33007812 4.50015625 -23.62109375 3.9690625 -22.890625 3.421875 C-22.24125977 2.93299805 -21.59189453 2.44412109 -20.92285156 1.94042969 C-19 1 -19 1 -16.97558594 1.30175781 C-15.9976709 1.6473877 -15.9976709 1.6473877 -15 2 C-11.52322185 2.83003243 -11.52322185 2.83003243 -8 3 C-3.43478261 0 -3.43478261 0 0 0 Z " fill="#15474C" transform="translate(157,177)"/>
<path d="M0 0 C3.29183503 1.71961532 6.17442399 3.75431844 8.9375 6.25 C8.36281075 10.12915244 6.55865553 12.39756605 3.9375 15.25 C2.9475 15.58 1.9575 15.91 0.9375 16.25 C-0.75922386 14.95513179 -2.4228279 13.61639342 -4.0625 12.25 C-8.12641504 10.11109735 -11.49977493 9.84976096 -16.0625 10.25 C-19.75802303 11.55430225 -21.73931821 12.90980864 -24.4375 15.75 C-26.71679258 20.65924556 -26.83911125 24.92466573 -26.0625 30.25 C-24.27299365 34.10432136 -22.79915715 35.74773376 -19.3125 38.125 C-13.93783887 39.98545962 -9.91746484 39.99198594 -4.625 37.875 C-1.97393428 36.50274335 -1.97393428 36.50274335 -1.0625 34.25 C1.1875 34.375 1.1875 34.375 3.9375 35.25 C7.89900762 39.94125902 7.89900762 39.94125902 8 43.375 C5.60996248 47.59271327 1.49348247 49.94829072 -3.0625 51.25 C-5.3945802 51.32646165 -7.73095878 51.34143299 -10.0625 51.25 C-10.3925 51.91 -10.7225 52.57 -11.0625 53.25 C-21.7302565 51.22312626 -28.22051162 48.17484061 -35 39.625 C-39.54940668 32.71779579 -39.84293726 25.42960288 -38.375 17.4375 C-36.23483199 9.73845405 -33.15608889 5.81375643 -26.37890625 1.51171875 C-18.30432447 -2.88640927 -8.59126965 -3.6675336 0 0 Z " fill="#020202" transform="translate(494.0625,178.75)"/>
<path d="M0 0 C0 3.63 0 7.26 0 11 C-0.84304687 11.10957031 -1.68609375 11.21914062 -2.5546875 11.33203125 C-3.65039062 11.49058594 -4.74609375 11.64914063 -5.875 11.8125 C-6.96554688 11.96332031 -8.05609375 12.11414063 -9.1796875 12.26953125 C-12.31238846 12.74665741 -12.31238846 12.74665741 -14 16 C-14.33 17.98 -14.66 19.96 -15 22 C-10.05 22 -5.1 22 0 22 C0 25.63 0 29.26 0 33 C-4.95 33 -9.9 33 -15 33 C-15 46.53 -15 60.06 -15 74 C-18.96 74 -22.92 74 -27 74 C-27 60.8 -27 47.6 -27 34 C-28.98 33.67 -30.96 33.34 -33 33 C-33 29.37 -33 25.74 -33 22 C-30.69 22 -28.38 22 -26 22 C-26.0928125 20.205625 -26.0928125 20.205625 -26.1875 18.375 C-26.1524893 13.4034805 -24.92602668 10.08030789 -21.48828125 6.3671875 C-14.98925725 0.3209045 -8.57649892 -0.26389227 0 0 Z " fill="#090A0B" transform="translate(246,155)"/>
<path d="M0 0 C3.75 1.125 3.75 1.125 7 3 C7.495 4.485 7.495 4.485 8 6 C8.81404297 5.26523438 8.81404297 5.26523438 9.64453125 4.515625 C12.55025641 2.64593783 14.26420294 2.6585902 17.6875 2.75 C18.66074219 2.76546875 19.63398437 2.7809375 20.63671875 2.796875 C23 3 23 3 24 4 C24.33 3.34 24.66 2.68 25 2 C25.99 2.33 26.98 2.66 28 3 C28 3.33 28 3.66 28 4 C32.29 4.33 36.58 4.66 41 5 C41 7.31 41 9.62 41 12 C40.34 12 39.68 12 39 12 C38.505 10.02 38.505 10.02 38 8 C37.67 9.32 37.34 10.64 37 12 C36.01 11.67 35.02 11.34 34 11 C33.67 11.66 33.34 12.32 33 13 C31.35 12.67 29.7 12.34 28 12 C27.67 12.66 27.34 13.32 27 14 C26.01 13.34 25.02 12.68 24 12 C21.05184724 12 18.18765935 12.19518038 15.25 12.4375 C14.18007813 12.52515625 13.11015625 12.6128125 12.0078125 12.703125 C8.84324473 12.97642841 8.84324473 12.97642841 5.125 13.6875 C1.53057947 14.04694205 -0.66310121 13.28925635 -4 12 C-4.99 12 -5.98 12 -7 12 C-7 12.99 -7 13.98 -7 15 C-7.99 14.67 -8.98 14.34 -10 14 C-10.495 13.01 -10.495 13.01 -11 12 C-11.99 12 -12.98 12 -14 12 C-14 12.99 -14 13.98 -14 15 C-14.99 15 -15.98 15 -17 15 C-17.495 13.515 -17.495 13.515 -18 12 C-20.31 11.67 -22.62 11.34 -25 11 C-25 10.01 -25 9.02 -25 8 C-25.66 8 -26.32 8 -27 8 C-27.33 8.66 -27.66 9.32 -28 10 C-27.34 10.33 -26.68 10.66 -26 11 C-26 11.66 -26 12.32 -26 13 C-28.57213134 14.61949011 -29.67669159 15.04408751 -32.75 14.625 C-33.86375 14.315625 -33.86375 14.315625 -35 14 C-35.495 12.515 -35.495 12.515 -36 11 C-37.32 11 -38.64 11 -40 11 C-40.33 11.66 -40.66 12.32 -41 13 C-45.32835576 14.01123788 -49.56744529 14.16319871 -54 14.1875 C-55.175625 14.20167969 -56.35125 14.21585938 -57.5625 14.23046875 C-61.03613815 13.9975771 -63.76451979 13.24783002 -67 12 C-67.33 10.02 -67.66 8.04 -68 6 C-68.33 7.98 -68.66 9.96 -69 12 C-69.5775 11.814375 -70.155 11.62875 -70.75 11.4375 C-73.20692525 10.95976454 -74.64397534 11.24270636 -77 12 C-77 12.99 -77 13.98 -77 15 C-78.32 14.67 -79.64 14.34 -81 14 C-81.125 7.25 -81.125 7.25 -80 5 C-77.625 4.25 -77.625 4.25 -75 4 C-74.01 4.66 -73.02 5.32 -72 6 C-72 4.35 -72 2.7 -72 1 C-66.125 2.875 -66.125 2.875 -65 4 C-62.23568252 3.93474787 -59.5069753 3.80727936 -56.75 3.625 C-55.98558594 3.58117187 -55.22117187 3.53734375 -54.43359375 3.4921875 C-50.54163014 3.25020013 -46.80763323 2.89860144 -43 2 C-43 2.99 -43 3.98 -43 5 C-41.75863281 4.91621094 -40.51726562 4.83242187 -39.23828125 4.74609375 C-37.59637556 4.64288825 -35.95444722 4.54004258 -34.3125 4.4375 C-33.49587891 4.38142578 -32.67925781 4.32535156 -31.83789062 4.26757812 C-27.70485877 4.01658429 -24.04175718 3.88872257 -20 5 C-20 4.34 -20 3.68 -20 3 C-18.97519531 3.03480469 -17.95039063 3.06960937 -16.89453125 3.10546875 C-15.53387064 3.13362035 -14.1731922 3.16091904 -12.8125 3.1875 C-11.80219727 3.22520508 -11.80219727 3.22520508 -10.77148438 3.26367188 C-6.17939846 3.33087313 -3.81248191 2.40683641 0 0 Z M4 4 C5 7 5 7 5 7 Z M-77 7 C-77 7.66 -77 8.32 -77 9 C-76.34 8.67 -75.68 8.34 -75 8 C-75.66 7.67 -76.32 7.34 -77 7 Z M-61 7 C-60 10 -60 10 -60 10 Z M-33 7 C-33 7.66 -33 8.32 -33 9 C-32.34 8.67 -31.68 8.34 -31 8 C-31.66 7.67 -32.32 7.34 -33 7 Z M-14 7 C-14 7.66 -14 8.32 -14 9 C-13.34 8.67 -12.68 8.34 -12 8 C-12.66 7.67 -13.32 7.34 -14 7 Z M-7 7 C-7 7.66 -7 8.32 -7 9 C-6.34 8.67 -5.68 8.34 -5 8 C-5.66 7.67 -6.32 7.34 -7 7 Z M23 7 C23 7.66 23 8.32 23 9 C23.66 9 24.32 9 25 9 C25 8.34 25 7.68 25 7 C24.34 7 23.68 7 23 7 Z M30 7 C30 7.66 30 8.32 30 9 C30.66 9 31.32 9 32 9 C32 8.34 32 7.68 32 7 C31.34 7 30.68 7 30 7 Z " fill="#052A35" transform="translate(509,237)"/>
<path d="M0 0 C0.88429688 -0.02578125 1.76859375 -0.0515625 2.6796875 -0.078125 C5.58456292 0.31166659 6.20970396 1.14429442 8.125 3.25 C10.99868492 2.96263151 13.38290144 2.16403285 16.125 1.25 C18.69765818 1.17970879 21.24141431 1.15629168 23.8125 1.1875 C24.51439453 1.19201172 25.21628906 1.19652344 25.93945312 1.20117188 C27.66800538 1.21293073 29.39651365 1.23086546 31.125 1.25 C31.62 6.695 31.62 6.695 32.125 12.25 C28.84696451 13.06950887 27.14282574 13.30015441 23.9375 13.125 C19.08151652 13.07676175 14.39493041 13.83067368 10.125 16.25 C7.35479926 20.71865168 6.97072864 24.89458193 6.84375 30.0703125 C6.82534058 30.72957733 6.80693115 31.38884216 6.78796387 32.06808472 C6.70934973 34.8858841 6.64133073 37.7039138 6.57275391 40.52197266 C6.52115243 42.5798774 6.46387804 44.63756916 6.40625 46.6953125 C6.36081055 48.54406982 6.36081055 48.54406982 6.31445312 50.43017578 C6.125 53.25 6.125 53.25 5.125 54.25 C0.76786068 54.49663053 -2.07629266 54.37157386 -5.875 52.25 C-5.90026739 45.00513449 -5.9178318 37.76028026 -5.92993164 30.51538086 C-5.93497356 28.04857967 -5.94180691 25.58178148 -5.95043945 23.11499023 C-5.96251125 19.57795471 -5.96822956 16.04095855 -5.97265625 12.50390625 C-5.97781754 11.39350479 -5.98297882 10.28310333 -5.98829651 9.13905334 C-5.98837204 8.11807053 -5.98844757 7.09708771 -5.98852539 6.04516602 C-5.990746 5.14137711 -5.99296661 4.2375882 -5.99525452 3.30641174 C-5.76375285 -0.65238131 -3.44190787 0.05985927 0 0 Z " fill="#010102" transform="translate(369.875,175.75)"/>
<path d="M0 0 C3.63 0 7.26 0 11 0 C11.88998924 6.09160957 12.14670777 12.0007832 12.1328125 18.15234375 C12.13376923 19.09308243 12.13472595 20.03382111 12.13571167 21.00306702 C12.13638812 22.97543404 12.13457139 24.94780335 12.13037109 26.92016602 C12.12497297 29.95268658 12.13035563 32.98506186 12.13671875 36.01757812 C12.1360587 37.93750033 12.13477905 39.85742244 12.1328125 41.77734375 C12.13483673 42.68765854 12.13686096 43.59797333 12.13894653 44.53587341 C12.11497809 50.88502191 12.11497809 50.88502191 11 52 C7.37 52 3.74 52 0 52 C0 34.84 0 17.68 0 0 Z " fill="#0A0A0B" transform="translate(252,177)"/>
<path d="M0 0 C5 2 5 2 7.375 3.125 C10.74465209 4.24821736 13.47329279 4.33270823 17 4 C17.66 3.01 18.32 2.02 19 1 C19.99 1 20.98 1 22 1 C22.66 1.99 23.32 2.98 24 4 C28.907632 5.4837027 32.2024526 4.48287829 37 3 C39.9375 2.875 39.9375 2.875 42 3 C42 4.32 42 5.64 42 7 C41.34 7 40.68 7 40 7 C40.66 8.32 41.32 9.64 42 11 C38.29127986 12.73846256 34.94020143 13.3622916 30.91796875 13.77734375 C28.85664205 13.98013603 28.85664205 13.98013603 26.3125 14.625 C24 15 24 15 21.859375 14.515625 C18.19595963 13.85500911 14.63886469 14.0224485 10.9375 14.125 C3.56830865 14.24613303 -2.9489265 13.28242842 -10 11 C-10 9.68 -10 8.36 -10 7 C-9.34 7 -8.68 7 -8 7 C-8 5.35 -8 3.7 -8 2 C-6.2984375 1.7834375 -6.2984375 1.7834375 -4.5625 1.5625 C-1.19222799 1.38828522 -1.19222799 1.38828522 0 0 Z M-2 3 C-2.66 4.32 -3.32 5.64 -4 7 C-3.01 7.33 -2.02 7.66 -1 8 C-0.67 7.01 -0.34 6.02 0 5 C-0.66 4.34 -1.32 3.68 -2 3 Z M29 7 C29 8.65 29 10.3 29 12 C29.33 12 29.66 12 30 12 C30 10.35 30 8.7 30 7 C29.67 7 29.34 7 29 7 Z M-2 9 C-1 11 -1 11 -1 11 Z " fill="#04303A" transform="translate(384,237)"/>
<path d="M0 0 C0.66 0 1.32 0 2 0 C2.33 1.32 2.66 2.64 3 4 C3.99 3.67 4.98 3.34 6 3 C6 4.65 6 6.3 6 8 C6.66 5.69 7.32 3.38 8 1 C8.66 1.66 9.32 2.32 10 3 C10 2.67 10 2.34 10 2 C15.05283723 1.79376175 19.34667153 1.9014401 24 4 C25.6518807 7.56806232 26.47770022 9.66926367 25.125 13.4375 C24.75375 13.953125 24.3825 14.46875 24 15 C18.25 15.125 18.25 15.125 16 14 C16 13.34 16 12.68 16 12 C3.95409465 11.86755599 3.95409465 11.86755599 -8.0625 12.625 C-13.2334036 13.09921603 -17.08493746 12.63835418 -22 11 C-22 9.35 -22 7.7 -22 6 C-22.99 5.67 -23.98 5.34 -25 5 C-25 4.01 -25 3.02 -25 2 C-21.40377262 0.76948364 -18.64063076 1.20504078 -14.9375 1.875 C-13.89464844 2.05804688 -12.85179687 2.24109375 -11.77734375 2.4296875 C-9 3 -9 3 -6 4 C-4.33378384 4.03874921 -2.66605828 4.0450286 -1 4 C-0.67 2.68 -0.34 1.36 0 0 Z M-3 6 C-3.33 6.66 -3.66 7.32 -4 8 C-3.01 7.67 -2.02 7.34 -1 7 C-1.66 6.67 -2.32 6.34 -3 6 Z M13 6 C12.67 7.32 12.34 8.64 12 10 C12.66 10 13.32 10 14 10 C13.67 8.68 13.34 7.36 13 6 Z M-19 8 C-18 10 -18 10 -18 10 Z " fill="#052F39" transform="translate(347,238)"/>
<path d="M0 0 C3.63 0 7.26 0 11 0 C10.34 2.97 9.68 5.94 9 9 C8.30519531 8.74089844 7.61039063 8.48179687 6.89453125 8.21484375 C2.7432568 7.90671947 0.70231553 10.01905483 -2.3125 12.5625 C-2.88500488 13.02052002 -3.45750977 13.47854004 -4.04736328 13.95043945 C-6.52908889 15.93799136 -8.96479121 17.96982104 -11.37890625 20.0390625 C-16.19152375 24.0134746 -16.19152375 24.0134746 -20.75 23.9375 C-24 23 -24 23 -25.80859375 22.15234375 C-29.44256507 21.89971473 -31.65995616 24.41524843 -34.3125 26.625 C-35.46808921 27.55290686 -36.624334 28.47999791 -37.78125 29.40625 C-38.61076172 30.07914063 -38.61076172 30.07914063 -39.45703125 30.765625 C-42.21562333 32.97249866 -45.1039585 34.97950593 -48 37 C-48.99 36.34 -49.98 35.68 -51 35 C-49.79169528 31.37508584 -48.6024574 30.69170187 -45.5625 28.4609375 C-44.66789062 27.79835937 -43.77328125 27.13578125 -42.8515625 26.453125 C-41.91054687 25.76734375 -40.96953125 25.0815625 -40 24.375 C-38.14550276 23.00826094 -36.29131895 21.64109644 -34.4375 20.2734375 C-33.61121094 19.66935059 -32.78492188 19.06526367 -31.93359375 18.44287109 C-30.09542348 17.14336521 -30.09542348 17.14336521 -29 16 C-26.625 15.75 -26.625 15.75 -24 16 C-22.1875 17.5 -22.1875 17.5 -21 19 C-17.03542738 17.62900697 -14.27045263 15.8109635 -11.0625 13.125 C-8.24747443 10.78966488 -5.54185461 8.64039945 -2.375 6.8125 C-1.59125 6.214375 -0.8075 5.61625 0 5 C0 3.35 0 1.7 0 0 Z " fill="#DEF0F1" transform="translate(166,157)"/>
<path d="M0 0 C2.5 0.125 2.5 0.125 3.5 1.125 C3.59311889 2.62918739 3.61746028 4.13771356 3.61352539 5.64477539 C3.61344986 6.60569595 3.61337433 7.56661652 3.61329651 8.55665588 C3.60813522 9.601436 3.60297394 10.64621613 3.59765625 11.72265625 C3.5962413 12.78665146 3.59482635 13.85064667 3.59336853 14.94688416 C3.58775064 18.36045083 3.57519511 21.773953 3.5625 25.1875 C3.55748731 27.49544176 3.552924 29.80338455 3.54882812 32.11132812 C3.5377754 37.78257426 3.52101987 43.45378253 3.5 49.125 C1.50045254 49.16754356 -0.50041636 49.16580783 -2.5 49.125 C-4.08681989 47.53818011 -3.62728536 45.91251654 -3.62939453 43.71289062 C-3.63412277 42.30638245 -3.63412277 42.30638245 -3.63894653 40.87145996 C-3.6369223 39.85169067 -3.63489807 38.83192139 -3.6328125 37.78125 C-3.63376923 36.74182251 -3.63472595 35.70239502 -3.63571167 34.63146973 C-3.63639363 32.42895446 -3.63453827 30.22643721 -3.63037109 28.02392578 C-3.62502308 24.63960281 -3.63031559 21.25541256 -3.63671875 17.87109375 C-3.63605797 15.73697887 -3.63477681 13.60286408 -3.6328125 11.46875 C-3.63483673 10.44898071 -3.63686096 9.42921143 -3.63894653 8.37854004 C-3.63579437 7.44086792 -3.63264221 6.5031958 -3.62939453 5.53710938 C-3.62859894 4.70739624 -3.62780334 3.87768311 -3.62698364 3.02282715 C-3.43020745 0.08191921 -2.95659019 0.14782951 0 0 Z " fill="#F7FEFD" transform="translate(168.5,176.875)"/>
<path d="M0 0 C1.08680054 0.01571045 1.08680054 0.01571045 2.19555664 0.03173828 C3.38375 0.04140625 3.38375 0.04140625 4.59594727 0.05126953 C5.42416992 0.06802734 6.25239258 0.08478516 7.10571289 0.10205078 C7.93006836 0.11107422 8.75442383 0.12009766 9.60375977 0.12939453 C11.13824167 0.14684599 12.67268616 0.16839715 14.20703125 0.1953125 C15.86057579 0.22207221 17.51445184 0.22705078 19.16821289 0.22705078 C23.16821289 0.22705078 27.16821289 0.22705078 31.16821289 0.22705078 C31.16821289 0.88705078 31.16821289 1.54705078 31.16821289 2.22705078 C31.82821289 2.22705078 32.48821289 2.22705078 33.16821289 2.22705078 C33.16821289 1.56705078 33.16821289 0.90705078 33.16821289 0.22705078 C34.05508789 0.41267578 34.94196289 0.59830078 35.85571289 0.78955078 C39.020001 1.20747563 41.11660931 1.0348282 44.16821289 0.22705078 C44.82821289 1.87705078 45.48821289 3.52705078 46.16821289 5.22705078 C45.50821289 5.22705078 44.84821289 5.22705078 44.16821289 5.22705078 C44.16821289 5.88705078 44.16821289 6.54705078 44.16821289 7.22705078 C42.4191463 7.42306686 40.66889443 7.60852481 38.91821289 7.78955078 C37.94368164 7.89396484 36.96915039 7.99837891 35.96508789 8.10595703 C33.37389096 8.21814573 31.63965173 7.8554722 29.16821289 7.22705078 C28.17821289 7.55705078 27.18821289 7.88705078 26.16821289 8.22705078 C24.10676182 8.29604178 22.04319888 8.31172805 19.98071289 8.28955078 C18.35069336 8.27601563 18.35069336 8.27601563 16.68774414 8.26220703 C15.85629883 8.25060547 15.02485352 8.23900391 14.16821289 8.22705078 C14.16821289 9.21705078 14.16821289 10.20705078 14.16821289 11.22705078 C12.23071289 10.85205078 12.23071289 10.85205078 10.16821289 10.22705078 C9.83821289 9.56705078 9.50821289 8.90705078 9.16821289 8.22705078 C6.1224002 7.75750817 6.1224002 7.75750817 2.60571289 7.60205078 C1.40817383 7.52728516 0.21063477 7.45251953 -1.02319336 7.37548828 C-1.9500293 7.32650391 -2.87686523 7.27751953 -3.83178711 7.22705078 C-3.95678711 4.85205078 -3.95678711 4.85205078 -3.83178711 2.22705078 C-1.83178711 0.22705078 -1.83178711 0.22705078 0 0 Z M9.16821289 3.22705078 C10.16821289 5.22705078 10.16821289 5.22705078 10.16821289 5.22705078 Z M14.16821289 3.22705078 C15.16821289 6.22705078 15.16821289 6.22705078 15.16821289 6.22705078 Z M32.16821289 4.22705078 C32.16821289 4.88705078 32.16821289 5.54705078 32.16821289 6.22705078 C32.82821289 5.89705078 33.48821289 5.56705078 34.16821289 5.22705078 C33.50821289 4.89705078 32.84821289 4.56705078 32.16821289 4.22705078 Z " fill="#52696D" transform="translate(274.831787109375,240.77294921875)"/>
<path d="M0 0 C2.97 0.495 2.97 0.495 6 1 C6 13.21 6 25.42 6 38 C3.03 38.495 3.03 38.495 0 39 C-2.51704805 36.48295195 -2.24669599 34.92327101 -2.27789307 31.48840332 C-2.2738446 30.73941772 -2.26979614 29.99043213 -2.265625 29.21875 C-2.26753845 28.44946167 -2.2694519 27.68017334 -2.27142334 26.88757324 C-2.27278508 25.2601692 -2.26908939 23.6327543 -2.26074219 22.00537109 C-2.25004221 19.50984369 -2.26063751 17.01503618 -2.2734375 14.51953125 C-2.2721159 12.94010257 -2.2695535 11.36067434 -2.265625 9.78125 C-2.26967346 9.0322644 -2.27372192 8.28327881 -2.27789307 7.51159668 C-2.22992243 2.22992243 -2.22992243 2.22992243 0 0 Z " fill="#E9F1F1" transform="translate(144,188)"/>
<path d="M0 0 C2.5 0.125 2.5 0.125 3.5 1.125 C3.58871273 4.15477804 3.6151935 7.16167022 3.59765625 10.19140625 C3.5962413 11.10002914 3.59482635 12.00865204 3.59336853 12.94480896 C3.58775193 15.85907221 3.57519665 18.77325981 3.5625 21.6875 C3.55748714 23.65820202 3.55292386 25.62890524 3.54882812 27.59960938 C3.53777711 32.44143559 3.52050138 37.28320495 3.5 42.125 C1.50045254 42.16754356 -0.50041636 42.16580783 -2.5 42.125 C-4.39623202 40.22876798 -3.62897626 37.46129641 -3.63894653 34.9387207 C-3.6369223 34.07206787 -3.63489807 33.20541504 -3.6328125 32.3125 C-3.63376923 31.42844482 -3.63472595 30.54438965 -3.63571167 29.63354492 C-3.63639351 27.76057871 -3.63453893 25.88761014 -3.63037109 24.01464844 C-3.62502289 21.13731612 -3.63031593 18.26013992 -3.63671875 15.3828125 C-3.63605797 13.56770799 -3.63477681 11.75260357 -3.6328125 9.9375 C-3.63483673 9.07084717 -3.63686096 8.20419434 -3.63894653 7.3112793 C-3.61076285 0.18053814 -3.61076285 0.18053814 0 0 Z " fill="#F6FDFC" transform="translate(157.5,183.875)"/>
<path d="M0 0 C2.4375 0.1875 2.4375 0.1875 3.4375 1.1875 C3.5377093 3.46697792 3.56831303 5.74957135 3.5703125 8.03125 C3.57126923 8.71554077 3.57222595 9.39983154 3.57321167 10.1048584 C3.5738933 11.55411877 3.57204023 13.00338218 3.56787109 14.45263672 C3.56252252 16.67812928 3.5678166 18.90342001 3.57421875 21.12890625 C3.57355797 22.53385461 3.5722768 23.93880285 3.5703125 25.34375 C3.56918457 26.63087891 3.56805664 27.91800781 3.56689453 29.24414062 C3.4375 32.1875 3.4375 32.1875 2.4375 33.1875 C0.43791636 33.22830783 -1.56295254 33.23004356 -3.5625 33.1875 C-5.67707422 28.95835156 -4.74835828 23.40850194 -4.74780273 18.75634766 C-4.74999158 16.69542873 -4.76815983 14.6350431 -4.78710938 12.57421875 C-4.79000977 10.63482422 -4.79000977 10.63482422 -4.79296875 8.65625 C-4.79707764 7.46451172 -4.80118652 6.27277344 -4.80541992 5.04492188 C-4.48807335 1.31203312 -3.79478431 0.27766714 0 0 Z " fill="#F7FDFC" transform="translate(135.5625,192.8125)"/>
<path d="M0 0 C2.45294972 0.87086972 3.18291878 1.75795663 4.54296875 3.953125 C5.62234975 6.31427094 5.98033137 7.69735516 6.04296875 10.328125 C4.53122409 13.70731894 2.96340483 15.49834616 -0.01953125 17.703125 C-4.43297757 17.86074808 -6.41665111 17.1520783 -9.95703125 14.515625 C-12.01953125 11.703125 -12.01953125 11.703125 -12.58203125 8.703125 C-11.89595468 5.04404996 -10.59218811 3.35144824 -8.01953125 0.703125 C-5.30025791 -0.65651167 -2.95947778 -0.40969091 0 0 Z M-8.01953125 5.703125 C-7.01953125 9.703125 -7.01953125 9.703125 -7.01953125 9.703125 Z " fill="#042F37" transform="translate(571.01953125,157.296875)"/>
<path d="M0 0 C3 0.125 3 0.125 4 1.125 C4.25342236 5.43147636 4.18522638 9.74945054 4.1875 14.0625 C4.19974609 15.28130859 4.21199219 16.50011719 4.22460938 17.75585938 C4.22750977 19.49899414 4.22750977 19.49899414 4.23046875 21.27734375 C4.23457764 22.34976318 4.23868652 23.42218262 4.24291992 24.52709961 C4 27.125 4 27.125 2 29.125 C-2.55555556 28.56944444 -2.55555556 28.56944444 -4 27.125 C-4.09971786 25.21041718 -4.13080589 23.29217683 -4.1328125 21.375 C-4.13410156 20.2096875 -4.13539062 19.044375 -4.13671875 17.84375 C-4.13285156 16.6165625 -4.12898438 15.389375 -4.125 14.125 C-4.12886719 12.8978125 -4.13273437 11.670625 -4.13671875 10.40625 C-4.13542969 9.2409375 -4.13414063 8.075625 -4.1328125 6.875 C-4.13168457 5.79734375 -4.13055664 4.7196875 -4.12939453 3.609375 C-3.93972678 -0.03224581 -3.70414701 0.15433946 0 0 Z " fill="#EFF9F9" transform="translate(124,197.875)"/>
<path d="M0 0 C4.55555556 0.55555556 4.55555556 0.55555556 6 2 C6.25156269 5.63899175 6.18522226 9.29083673 6.1875 12.9375 C6.19974609 13.96552734 6.21199219 14.99355469 6.22460938 16.05273438 C6.22750977 17.52516602 6.22750977 17.52516602 6.23046875 19.02734375 C6.23457764 19.93218506 6.23868652 20.83702637 6.24291992 21.76928711 C6 24 6 24 4 26 C-0.55555556 25.44444444 -0.55555556 25.44444444 -2 24 C-2.25156269 20.36100825 -2.18522226 16.70916327 -2.1875 13.0625 C-2.19974609 12.03447266 -2.21199219 11.00644531 -2.22460938 9.94726562 C-2.22654297 8.96564453 -2.22847656 7.98402344 -2.23046875 6.97265625 C-2.23457764 6.06781494 -2.23868652 5.16297363 -2.24291992 4.23071289 C-2 2 -2 2 0 0 Z " fill="#F8FEFD" transform="translate(111,201)"/>
<path d="M0 0 C6.66666667 0 13.33333333 0 20 0 C20 0.66 20 1.32 20 2 C20.66 2 21.32 2 22 2 C22 1.34 22 0.68 22 0 C23.3303125 0.2784375 23.3303125 0.2784375 24.6875 0.5625 C27.85178811 0.98042484 29.94839642 0.80777742 33 0 C33.66 1.65 34.32 3.3 35 5 C34.34 5 33.68 5 33 5 C33 5.66 33 6.32 33 7 C31.25093341 7.19601608 29.50068154 7.38147403 27.75 7.5625 C26.77546875 7.66691406 25.8009375 7.77132812 24.796875 7.87890625 C22.20567807 7.99109494 20.47143884 7.62842142 18 7 C17.01 7.33 16.02 7.66 15 8 C14.34 7.67 13.68 7.34 13 7 C13 5.35 13 3.7 13 2 C9.13351728 3.04097612 5.50538557 4.03698408 2 6 C2 4.68 2 3.36 2 2 C1.34 1.34 0.68 0.68 0 0 Z M21 4 C21 4.66 21 5.32 21 6 C21.66 5.67 22.32 5.34 23 5 C22.34 4.67 21.68 4.34 21 4 Z " fill="#617980" transform="translate(286,241)"/>
<path d="M0 0 C1.3125 3.5625 1.3125 3.5625 2 7 C2.66 7.66 3.32 8.32 4 9 C-0.14113017 11.07056508 -2.52503873 10.98449148 -7 10 C-9.33257494 9.66140041 -11.66574212 9.3267961 -14 9 C-14 9.99 -14 10.98 -14 12 C-14.99 11.67 -15.98 11.34 -17 11 C-17 9.35 -17 7.7 -17 6 C-16.38125 5.773125 -15.7625 5.54625 -15.125 5.3125 C-12.77279369 4.15068028 -12.77279369 4.15068028 -12 1.5 C-11 -1 -11 -1 -9.3125 -2.5 C-5.43273204 -3.33886875 -3.30220977 -2.01801708 0 0 Z M-3 1 C-2 4 -2 4 -2 4 Z " fill="#031E29" transform="translate(516,240)"/>
<path d="M0 0 C1 2 1 2 1 6 C0.67 6.99 0.34 7.98 0 9 C1.32 9.66 2.64 10.32 4 11 C1 13 1 13 -4 13 C-4.33 25.87 -4.66 38.74 -5 52 C-5.33 52 -5.66 52 -6 52 C-6 39.46 -6 26.92 -6 14 C-6.99 13.67 -7.98 13.34 -9 13 C-6.94766315 10.7522025 -5.99332739 9.9977758 -3 9 C-3 8.01 -3 7.02 -3 6 C-3.66 6 -4.32 6 -5 6 C-5 5.34 -5 4.68 -5 4 C-3.37373596 2.61767557 -1.7074998 1.28062485 0 0 Z M-11 13 C-10.01 13.33 -9.02 13.66 -8 14 C-8 26.87 -8 39.74 -8 53 C-8.33 53 -8.66 53 -9 53 C-9 41.12 -9 29.24 -9 17 C-9.66 17 -10.32 17 -11 17 C-11 15.68 -11 14.36 -11 13 Z " fill="#557C7F" transform="translate(159,172)"/>
<path d="M0 0 C4.95 0.33 9.9 0.66 15 1 C15 1.99 15 2.98 15 4 C14.34 4 13.68 4 13 4 C13 4.66 13 5.32 13 6 C12.01 6 11.02 6 10 6 C9.67 6.99 9.34 7.98 9 9 C8.01 9 7.02 9 6 9 C6 9.99 6 10.98 6 12 C5.01 12 4.02 12 3 12 C2.67 11.01 2.34 10.02 2 9 C-0.31 8.67 -2.62 8.34 -5 8 C-4.67 6.35 -4.34 4.7 -4 3 C-2.68 2.67 -1.36 2.34 0 2 C0 1.34 0 0.68 0 0 Z M6 4 C6 4.66 6 5.32 6 6 C6.66 5.67 7.32 5.34 8 5 C7.34 4.67 6.68 4.34 6 4 Z " fill="#06353E" transform="translate(489,240)"/>
<path d="M0 0 C3.375 1 3.375 1 4.875 2.75 C5.66552513 6.30736307 5.11515451 8.76640915 3.25 11.875 C1.375 13 1.375 13 -2.1875 12.875 C-5.625 12 -5.625 12 -7.625 9 C-8.12951649 5.72064281 -7.90022753 4.41834584 -6.0625 1.625 C-3.625 0 -3.625 0 0 0 Z " fill="#040406" transform="translate(258.625,157)"/>
<path d="M0 0 C0.98226562 0.01160156 1.96453125 0.02320313 2.9765625 0.03515625 C3.95367187 0.04417969 4.93078125 0.05320313 5.9375 0.0625 C7.25621094 0.07990234 7.25621094 0.07990234 8.6015625 0.09765625 C9.5915625 0.09765625 10.5815625 0.09765625 11.6015625 0.09765625 C12.9215625 0.09765625 14.2415625 0.09765625 15.6015625 0.09765625 C15.6015625 1.08765625 15.6015625 2.07765625 15.6015625 3.09765625 C14.9415625 3.09765625 14.2815625 3.09765625 13.6015625 3.09765625 C13.6015625 3.75765625 13.6015625 4.41765625 13.6015625 5.09765625 C14.2615625 5.09765625 14.9215625 5.09765625 15.6015625 5.09765625 C15.2715625 6.08765625 14.9415625 7.07765625 14.6015625 8.09765625 C12.61588542 7.8046875 10.63020833 7.51171875 8.64453125 7.21875 C6.3990283 6.95860826 6.3990283 6.95860826 3.6015625 8.09765625 C0.4765625 8.22265625 0.4765625 8.22265625 -2.3984375 8.09765625 C-3.3984375 7.09765625 -3.3984375 7.09765625 -3.5234375 4.09765625 C-3.35839943 0.13674265 -3.35839943 0.13674265 0 0 Z " fill="#567075" transform="translate(238.3984375,240.90234375)"/>
<path d="M0 0 C3 0.1875 3 0.1875 5 1.1875 C5 1.8475 5 2.5075 5 3.1875 C5.66 3.1875 6.32 3.1875 7 3.1875 C7.36101683 6.43665145 7.24958242 7.8227257 5.375 10.5625 C3 12.1875 3 12.1875 -0.125 12.0625 C-3 11.1875 -3 11.1875 -5 9.1875 C-5.25 5.6875 -5.25 5.6875 -5 2.1875 C-3 0.1875 -3 0.1875 0 0 Z " fill="#0A454C" transform="translate(569,217.8125)"/>
<path d="M0 0 C0.66 0.66 1.32 1.32 2 2 C1.67 2.33 1.34 2.66 1 3 C0.91209025 5.29151417 0.89305962 7.58572524 0.90234375 9.87890625 C0.9037587 10.5655687 0.90517365 11.25223114 0.90663147 11.95970154 C0.91224521 14.16067801 0.92479993 16.36155409 0.9375 18.5625 C0.94251324 20.05143083 0.94707645 21.54036324 0.95117188 23.02929688 C0.96221907 26.68623075 0.97949287 30.34310558 1 34 C2.093125 33.79375 3.18625 33.5875 4.3125 33.375 C8 33 8 33 11 35 C9.43969749 35.22419881 7.8765495 35.42863758 6.3125 35.625 C5.44238281 35.74101562 4.57226562 35.85703125 3.67578125 35.9765625 C0.64472157 36.00311193 -1.24094711 35.18447252 -4 34 C-4.0992502 29.96166211 -4.17164562 25.92380128 -4.21972656 21.88452148 C-4.2397799 20.51199977 -4.26703028 19.13956283 -4.30175781 17.76733398 C-4.35054552 15.78927956 -4.37088876 13.81058881 -4.390625 11.83203125 C-4.41157227 10.64327393 -4.43251953 9.4545166 -4.45410156 8.22973633 C-3.91582228 4.40129725 -2.63285462 2.76267531 0 0 Z " fill="#2B4F51" transform="translate(131,192)"/>
<path d="M0 0 C2 2 2 2 2.8125 3.9375 C4.41072025 6.71335623 6.13427785 7.63537041 9 9 C10.32 9 11.64 9 13 9 C13.66 7.68 14.32 6.36 15 5 C16 8 16 8 14.5 11.125 C12 14 12 14 8.625 15.125 C4.21729631 14.97301022 2.35163655 13.79303046 -1 11 C-2.38550197 8.22899606 -2.1877467 6.0665294 -2 3 C-1.34 2.01 -0.68 1.02 0 0 Z " fill="#032B30" transform="translate(561,160)"/>
<path d="M0 0 C1.48693359 0.11794922 1.48693359 0.11794922 3.00390625 0.23828125 C3.80699219 0.38652344 4.61007812 0.53476563 5.4375 0.6875 C5.7675 1.3475 6.0975 2.0075 6.4375 2.6875 C8.45419827 3.82100534 8.45419827 3.82100534 10.4375 4.6875 C9.4475 6.1725 9.4475 6.1725 8.4375 7.6875 C7.1175 7.6875 5.7975 7.6875 4.4375 7.6875 C4.1075 7.0275 3.7775 6.3675 3.4375 5.6875 C2.7775 5.6875 2.1175 5.6875 1.4375 5.6875 C1.4375 6.6775 1.4375 7.6675 1.4375 8.6875 C2.0975 8.6875 2.7575 8.6875 3.4375 8.6875 C3.4375 9.6775 3.4375 10.6675 3.4375 11.6875 C0.7975 11.0275 -1.8425 10.3675 -4.5625 9.6875 C-4.5625 8.0375 -4.5625 6.3875 -4.5625 4.6875 C-5.5525 4.3575 -6.5425 4.0275 -7.5625 3.6875 C-7.5625 2.6975 -7.5625 1.7075 -7.5625 0.6875 C-4.86233366 -0.66258317 -2.99272164 -0.26142419 0 0 Z M-1.5625 6.6875 C-0.5625 8.6875 -0.5625 8.6875 -0.5625 8.6875 Z " fill="#043A46" transform="translate(329.5625,239.3125)"/>
<path d="M0 0 C0.99 0 1.98 0 3 0 C3 3.3 3 6.6 3 10 C1.02145742 10.19397476 -0.9578648 10.38001321 -2.9375 10.5625 C-4.59072266 10.71912109 -4.59072266 10.71912109 -6.27734375 10.87890625 C-7.62505859 10.93884766 -7.62505859 10.93884766 -9 11 C-10 10 -10 10 -10.09765625 7.93359375 C-10.08605469 7.10988281 -10.07445312 6.28617188 -10.0625 5.4375 C-10.05347656 4.61121094 -10.04445312 3.78492188 -10.03515625 2.93359375 C-10.02355469 2.29550781 -10.01195312 1.65742188 -10 1 C-9.01 1 -8.02 1 -7 1 C-6.67 1.66 -6.34 2.32 -6 3 C-4.35 3 -2.7 3 -1 3 C-0.67 2.01 -0.34 1.02 0 0 Z " fill="#254A4C" transform="translate(265,238)"/>
<path d="M0 0 C0.66 0.33 1.32 0.66 2 1 C0.576875 2.0209375 0.576875 2.0209375 -0.875 3.0625 C-4.4377938 5.98667981 -5.1273588 8.5495299 -6 13 C-5.34 13.33 -4.68 13.66 -4 14 C-5.98 14.99 -5.98 14.99 -8 16 C-8 37.78 -8 59.56 -8 82 C-8.33 82 -8.66 82 -9 82 C-9.0929248 73.01136904 -9.16387837 64.02290495 -9.20724869 55.0338974 C-9.22807062 50.85933899 -9.25628851 46.68511067 -9.30175781 42.51074219 C-9.34540966 38.47771487 -9.36917763 34.44500386 -9.37950897 30.41175842 C-9.38686585 28.87764003 -9.40123192 27.34353778 -9.42292023 25.80955505 C-9.62674754 10.78757961 -9.62674754 10.78757961 -5 4 C-2.25 1.5 -2.25 1.5 0 0 Z " fill="#0F313A" transform="translate(98,144)"/>
<path d="M0 0 C2.4375 0.1875 2.4375 0.1875 3.4375 1.1875 C3.52540975 3.47901417 3.54444038 5.77322524 3.53515625 8.06640625 C3.5337413 8.7530687 3.53232635 9.43973114 3.53086853 10.14720154 C3.52525479 12.34817801 3.51270007 14.54905409 3.5 16.75 C3.49498676 18.23893083 3.49042355 19.72786324 3.48632812 21.21679688 C3.47528093 24.87373075 3.45800713 28.53060558 3.4375 32.1875 C3.1075 32.1875 2.7775 32.1875 2.4375 32.1875 C2.4375 23.2775 2.4375 14.3675 2.4375 5.1875 C0.7875 5.5175 -0.8625 5.8475 -2.5625 6.1875 C-2.376875 7.321875 -2.19125 8.45625 -2 9.625 C-1.855625 10.800625 -1.71125 11.97625 -1.5625 13.1875 C-1.8925 13.5175 -2.2225 13.8475 -2.5625 14.1875 C-2.79951239 17.04627909 -2.98469182 19.88633297 -3.125 22.75 C-3.16818359 23.55630859 -3.21136719 24.36261719 -3.25585938 25.19335938 C-3.36225262 27.19118805 -3.46290888 29.1893207 -3.5625 31.1875 C-3.8925 31.1875 -4.2225 31.1875 -4.5625 31.1875 C-4.61189115 27.09411348 -4.64821501 23.00084202 -4.67236328 18.90722656 C-4.68242877 17.51429219 -4.69608234 16.12137898 -4.71337891 14.72851562 C-4.7376022 12.7279564 -4.74790814 10.72724385 -4.7578125 8.7265625 C-4.76828613 7.52209473 -4.77875977 6.31762695 -4.78955078 5.07666016 C-4.49454876 1.32283867 -3.81703118 0.27929496 0 0 Z " fill="#D8EDEE" transform="translate(135.5625,192.8125)"/>
<path d="M0 0 C4.55555556 0.55555556 4.55555556 0.55555556 6 2 C6.08700342 3.63472882 6.10701063 5.27314055 6.09765625 6.91015625 C6.09443359 7.89951172 6.09121094 8.88886719 6.08789062 9.90820312 C6.07951172 10.94912109 6.07113281 11.99003906 6.0625 13.0625 C6.05798828 14.10728516 6.05347656 15.15207031 6.04882812 16.22851562 C6.03699913 18.8190666 6.02051689 21.40950559 6 24 C5.67 24 5.34 24 5 24 C4.67 18.06 4.34 12.12 4 6 C2.68 6.33 1.36 6.66 0 7 C-0.02698422 9.43757413 -0.04683099 11.87484915 -0.0625 14.3125 C-0.07087891 15.00279297 -0.07925781 15.69308594 -0.08789062 16.40429688 C-0.10307906 19.5483025 -0.00193327 21.99420019 1 25 C1.99 25.33 2.98 25.66 4 26 C-0.875 25.125 -0.875 25.125 -2 24 C-2.25156269 20.36100825 -2.18522226 16.70916327 -2.1875 13.0625 C-2.19974609 12.03447266 -2.21199219 11.00644531 -2.22460938 9.94726562 C-2.22654297 8.96564453 -2.22847656 7.98402344 -2.23046875 6.97265625 C-2.23457764 6.06781494 -2.23868652 5.16297363 -2.24291992 4.23071289 C-2 2 -2 2 0 0 Z " fill="#DBEAEC" transform="translate(111,201)"/>
<path d="M0 0 C0.33 0 0.66 0 1 0 C1 8.91 1 17.82 1 27 C0.01 26.67 -0.98 26.34 -2 26 C-2.05799124 22.22923111 -2.09359306 18.45857666 -2.125 14.6875 C-2.14175781 13.61564453 -2.15851563 12.54378906 -2.17578125 11.43945312 C-2.18222656 10.41142578 -2.18867187 9.38339844 -2.1953125 8.32421875 C-2.20578613 7.37635498 -2.21625977 6.42849121 -2.22705078 5.4519043 C-2 3 -2 3 0 0 Z " fill="#1C4545" transform="translate(119,199)"/>
<path d="M0 0 C0.33 0 0.66 0 1 0 C1.12375 1.670625 1.12375 1.670625 1.25 3.375 C1.57873787 7.05753944 1.57873787 7.05753944 4.0625 8.4375 C4.701875 8.623125 5.34125 8.80875 6 9 C6 9.66 6 10.32 6 11 C0.06 11 -5.88 11 -12 11 C-12 9.68 -12 8.36 -12 7 C-10.1875 6.375 -10.1875 6.375 -8 6 C-7.01 6.66 -6.02 7.32 -5 8 C-5 7.34 -5 6.68 -5 6 C-4.01 6.33 -3.02 6.66 -2 7 C-1.34 4.69 -0.68 2.38 0 0 Z " fill="#04212B" transform="translate(355,239)"/>
<path d="M0 0 C0.99 0.33 1.98 0.66 3 1 C2.67 2.32 2.34 3.64 2 5 C2.886875 4.34 3.77375 3.68 4.6875 3 C7.98111986 1.01139933 9.28251873 0.56264926 13 1 C13 2.65 13 4.3 13 6 C9.61981469 7.04005702 6.5219721 7.08004482 3 7 C3 7.99 3 8.98 3 10 C2.01 10 1.02 10 0 10 C0 6.7 0 3.4 0 0 Z " fill="#385759" transform="translate(286,242)"/>
<path d="M0 0 C2.97 0 5.94 0 9 0 C9 2.97 9 5.94 9 9 C8.34 9 7.68 9 7 9 C6.67 8.34 6.34 7.68 6 7 C4.68 7 3.36 7 2 7 C2 7.66 2 8.32 2 9 C1.34 9 0.68 9 0 9 C0 6.03 0 3.06 0 0 Z " fill="#6F8289" transform="translate(218,239)"/>
<path d="M0 0 C1.66666667 0 3.33333333 0 5 0 C5 14.19 5 28.38 5 43 C4.67 43 4.34 43 4 43 C3.96241577 41.92069214 3.96241577 41.92069214 3.92407227 40.81958008 C4.79724511 19.77035089 4.79724511 19.77035089 0 0 Z " fill="#393A3B" transform="translate(259,185)"/>
<path d="M0 0 C1.66611905 -0.042721 3.33382885 -0.04063832 5 0 C6 1 6 1 6.12025452 2.94252014 C6.11803391 3.79301437 6.11581329 4.64350861 6.11352539 5.51977539 C6.11344986 6.48069595 6.11337433 7.44161652 6.11329651 8.43165588 C6.10813522 9.476436 6.10297394 10.52121613 6.09765625 11.59765625 C6.0962413 12.66165146 6.09482635 13.72564667 6.09336853 14.82188416 C6.08775064 18.23545083 6.07519511 21.648953 6.0625 25.0625 C6.05748731 27.37044176 6.052924 29.67838455 6.04882812 31.98632812 C6.0377754 37.65757426 6.02101987 43.32878253 6 49 C5.67 49 5.34 49 5 49 C4.97494385 47.75387939 4.9498877 46.50775879 4.92407227 45.22387695 C4.82977089 40.59259074 4.7296059 35.96144656 4.62768555 31.33032227 C4.58442261 29.32742642 4.54274153 27.32449575 4.50268555 25.3215332 C4.44477338 22.43950921 4.38113953 19.55765912 4.31640625 16.67578125 C4.29969376 15.78288895 4.28298126 14.88999664 4.26576233 13.970047 C4.16841511 9.86782367 4.01395876 6.00170912 3 2 C1.68 2.33 0.36 2.66 -1 3 C-0.67 2.01 -0.34 1.02 0 0 Z " fill="#EDFCFD" transform="translate(166,177)"/>
<path d="M0 0 C0.73597412 0.00193359 1.47194824 0.00386719 2.23022461 0.00585938 C11.00049757 0.07207094 19.74813204 0.5870147 28.5 1.125 C28.5 1.455 28.5 1.785 28.5 2.125 C27.46593018 2.11452637 26.43186035 2.10405273 25.36645508 2.09326172 C21.51802045 2.05697256 17.66960086 2.03406715 13.82104492 2.01513672 C12.15760756 2.00509943 10.49418775 1.99146669 8.83081055 1.97412109 C6.43533995 1.94977251 4.04010332 1.93849412 1.64453125 1.9296875 C0.9047554 1.91936493 0.16497955 1.90904236 -0.59721375 1.89840698 C-4.68331761 1.89752563 -7.8243223 2.30135905 -11.5 4.125 C-11.17 3.135 -10.84 2.145 -10.5 1.125 C-6.93545545 -0.06318152 -3.70858496 -0.02353856 0 0 Z " fill="#184048" transform="translate(112.5,140.875)"/>
<path d="M0 0 C0.99 0.33 1.98 0.66 3 1 C4.99961564 1.03920815 7.00049364 1.04443347 9 1 C8.79375 1.598125 8.5875 2.19625 8.375 2.8125 C7.69328085 5.28450846 7.69328085 5.28450846 10 8 C12.56282742 8.72965366 12.56282742 8.72965366 15 9 C11.60496995 11.26335337 10.82992437 11.18567637 6.9375 10.75 C6.05964844 10.66234375 5.18179687 10.5746875 4.27734375 10.484375 C2 10 2 10 0 8 C0.99 8 1.98 8 3 8 C3 6.68 3 5.36 3 4 C3.66 4 4.32 4 5 4 C5.33 4.66 5.66 5.32 6 6 C6 5.01 6 4.02 6 3 C4.35 3 2.7 3 1 3 C0.67 2.01 0.34 1.02 0 0 Z " fill="#002632" transform="translate(391,240)"/>
<path d="M0 0 C3 0.1875 3 0.1875 5 1.1875 C5 1.8475 5 2.5075 5 3.1875 C5.66 3.1875 6.32 3.1875 7 3.1875 C7.36101683 6.43665145 7.24958242 7.8227257 5.375 10.5625 C3 12.1875 3 12.1875 -0.125 12.0625 C-3 11.1875 -3 11.1875 -5 9.1875 C-5.25 5.6875 -5.25 5.6875 -5 2.1875 C-3 0.1875 -3 0.1875 0 0 Z M-3 2.1875 C-3.67801034 5.08823181 -3.67801034 5.08823181 -4 8.1875 C-3.34 8.8475 -2.68 9.5075 -2 10.1875 C0.61580479 9.8605244 2.64078137 9.36710932 5 8.1875 C5 6.5375 5 4.8875 5 3.1875 C2.29120665 1.83310332 -0.00933268 2.12248549 -3 2.1875 Z " fill="#06242E" transform="translate(569,217.8125)"/>
<path d="M0 0 C1.65 0 3.3 0 5 0 C5 1.32 5 2.64 5 4 C4.34 4 3.68 4 3 4 C3.66 5.32 4.32 6.64 5 8 C2.69 8.66 0.38 9.32 -2 10 C-3 8 -3 8 -2.125 5 C-1 2 -1 2 0 0 Z " fill="#032634" transform="translate(421,240)"/>
<path d="M0 0 C6.66666667 0 13.33333333 0 20 0 C20 0.33 20 0.66 20 1 C18.35 1 16.7 1 15 1 C15 2.98 15 4.96 15 7 C14.34 7 13.68 7 13 7 C13 5.35 13 3.7 13 2 C9.13351728 3.04097612 5.50538557 4.03698408 2 6 C2 4.68 2 3.36 2 2 C1.34 1.34 0.68 0.68 0 0 Z " fill="#759596" transform="translate(286,241)"/>
<path d="M0 0 C2.31 0 4.62 0 7 0 C7.5534764 2.07553648 8 3.84365964 8 6 C8.33 6.66 8.66 7.32 9 8 C7.25 8.75 7.25 8.75 5 9 C2.75 7.0625 2.75 7.0625 1 5 C0.67 5.66 0.34 6.32 0 7 C0 4.69 0 2.38 0 0 Z " fill="#0B4043" transform="translate(565,162)"/>
<path d="M0 0 C1.32 0 2.64 0 4 0 C5.0625 2.375 5.0625 2.375 6 5 C5.67 5.66 5.34 6.32 5 7 C2.69 7 0.38 7 -2 7 C-2.125 4.625 -2.125 4.625 -2 2 C-1.34 1.34 -0.68 0.68 0 0 Z " fill="#436265" transform="translate(273,241)"/>
<path d="M0 0 C0.99 0 1.98 0 3 0 C3 3.3 3 6.6 3 10 C1.68 10 0.36 10 -1 10 C-1.0825 9.21625 -1.165 8.4325 -1.25 7.625 C-1.72806339 4.85250896 -1.72806339 4.85250896 -4.0625 3.6875 C-4.701875 3.460625 -5.34125 3.23375 -6 3 C-4.35 3 -2.7 3 -1 3 C-0.67 2.01 -0.34 1.02 0 0 Z " fill="#758D8D" transform="translate(265,238)"/>
<path d="M0 0 C0.721875 0.391875 1.44375 0.78375 2.1875 1.1875 C1.1975 1.6825 1.1975 1.6825 0.1875 2.1875 C-0.46463292 4.21213255 -0.46463292 4.21213255 -0.8125 6.1875 C-5.03128192 6.38372241 -7.98260894 5.98980168 -11.8125 4.1875 C-11.255625 3.919375 -10.69875 3.65125 -10.125 3.375 C-7.71956997 2.21173014 -7.71956997 2.21173014 -5.375 0.4375 C-2.8125 -0.8125 -2.8125 -0.8125 0 0 Z " fill="#00212F" transform="translate(454.8125,244.8125)"/>
<path d="M0 0 C0 0.99 0 1.98 0 3 C-0.66 3 -1.32 3 -2 3 C-2 3.66 -2 4.32 -2 5 C-1.34 5 -0.68 5 0 5 C-0.33 5.99 -0.66 6.98 -1 8 C-3.97 7.505 -3.97 7.505 -7 7 C-7 5.02 -7 3.04 -7 1 C-4 0 -4 0 0 0 Z " fill="#597077" transform="translate(254,241)"/>
<path d="M0 0 C2.125 0.375 2.125 0.375 4 1 C3.01 1 2.02 1 1 1 C1 1.99 1 2.98 1 4 C0.34 4 -0.32 4 -1 4 C-0.85924795 6.93782469 -0.7126162 9.87515171 -0.5625 12.8125 C-0.52318359 13.64587891 -0.48386719 14.47925781 -0.44335938 15.33789062 C-0.40146484 16.14033203 -0.35957031 16.94277344 -0.31640625 17.76953125 C-0.26141968 18.87711792 -0.26141968 18.87711792 -0.20532227 20.00708008 C-0.05157859 22.207495 -0.05157859 22.207495 1 25 C1.99 25.33 2.98 25.66 4 26 C-0.875 25.125 -0.875 25.125 -2 24 C-2.25156269 20.36100825 -2.18522226 16.70916327 -2.1875 13.0625 C-2.19974609 12.03447266 -2.21199219 11.00644531 -2.22460938 9.94726562 C-2.22654297 8.96564453 -2.22847656 7.98402344 -2.23046875 6.97265625 C-2.23457764 6.06781494 -2.23868652 5.16297363 -2.24291992 4.23071289 C-2 2 -2 2 0 0 Z " fill="#BDD7D7" transform="translate(111,201)"/>
<path d="M0 0 C1.1446875 0.2475 1.1446875 0.2475 2.3125 0.5 C5.03596236 1.09145396 5.03596236 1.09145396 8 1 C8.99 1.33 9.98 1.66 11 2 C10.34 3.32 9.68 4.64 9 6 C7.02 6 5.04 6 3 6 C2.67 5.01 2.34 4.02 2 3 C1.34 3 0.68 3 0 3 C0 2.01 0 1.02 0 0 Z " fill="#00232D" transform="translate(331,245)"/>
<path d="M0 0 C0.99 0 1.98 0 3 0 C2.67 1.65 2.34 3.3 2 5 C0.68 5.33 -0.64 5.66 -2 6 C-2 6.99 -2 7.98 -2 9 C-2.99 8.67 -3.98 8.34 -5 8 C-5 6.35 -5 4.7 -5 3 C-4.360625 2.690625 -3.72125 2.38125 -3.0625 2.0625 C-1.06389179 1.1654837 -1.06389179 1.1654837 0 0 Z " fill="#052930" transform="translate(504,243)"/>
<path d="M0 0 C1.98 0.66 3.96 1.32 6 2 C5.61402985 4.79828356 5.19863427 5.8205884 3.0625 7.75 C1 9 1 9 -1 9 C-1.09765625 2.84765625 -1.09765625 2.84765625 -1 1 C-0.67 0.67 -0.34 0.34 0 0 Z " fill="#1E5055" transform="translate(161,157)"/>
<path d="M0 0 C0.33 0.66 0.66 1.32 1 2 C1.99 1.67 2.98 1.34 4 1 C5 4 5 4 4 7 C1.9375 7.6875 1.9375 7.6875 0 8 C-1.5625 6.1875 -1.5625 6.1875 -3 4 C-2.67 3.01 -2.34 2.02 -2 1 C-1.34 0.67 -0.68 0.34 0 0 Z " fill="#053741" transform="translate(401,241)"/>
<path d="M0 0 C1.66611905 -0.042721 3.33382885 -0.04063832 5 0 C6 1 6 1 6.0625 4.0625 C6.041875 5.031875 6.02125 6.00125 6 7 C4.02 7 2.04 7 0 7 C0 4.69 0 2.38 0 0 Z " fill="#4E6E73" transform="translate(228,241)"/>
<path d="M0 0 C1.32 0 2.64 0 4 0 C4.66 1.65 5.32 3.3 6 5 C5.34 5 4.68 5 4 5 C4 5.66 4 6.32 4 7 C2.35 7 0.7 7 -1 7 C-0.67 4.69 -0.34 2.38 0 0 Z " fill="#39545A" transform="translate(315,241)"/>
<path d="M0 0 C2.25 1.25 2.25 1.25 3.25 3.25 C2.26 3.58 1.27 3.91 0.25 4.25 C-0.08 3.92 -0.41 3.59 -0.75 3.25 C-1.08 5.23 -1.41 7.21 -1.75 9.25 C-2.41 8.92 -3.07 8.59 -3.75 8.25 C-4.375 5.6875 -4.375 5.6875 -4.75 3.25 C-5.74 3.25 -6.73 3.25 -7.75 3.25 C-7.75 2.59 -7.75 1.93 -7.75 1.25 C-4.71997804 -0.30829701 -3.35077048 -0.91384649 0 0 Z " fill="#001E29" transform="translate(386.75,237.75)"/>
<path d="M0 0 C0.66 0 1.32 0 2 0 C2 1.32 2 2.64 2 4 C2.99 3.34 3.98 2.68 5 2 C5.99 2.99 6.98 3.98 8 5 C3.92630576 7.03684712 1.41062136 7.0257259 -3 6 C-2.67 5.01 -2.34 4.02 -2 3 C-1.34 3.33 -0.68 3.66 0 4 C0 2.68 0 1.36 0 0 Z " fill="#001425" transform="translate(512,244)"/>
<path d="M0 0 C0.66 0.33 1.32 0.66 2 1 C0.576875 2.0209375 0.576875 2.0209375 -0.875 3.0625 C-4.4377938 5.98667981 -5.1273588 8.5495299 -6 13 C-5.34 13.33 -4.68 13.66 -4 14 C-5.32 14.33 -6.64 14.66 -8 15 C-8.50537432 9.69356959 -7.30655751 7.13319688 -4 3 C-1.75 1.125 -1.75 1.125 0 0 Z " fill="#154044" transform="translate(98,144)"/>
<path d="M0 0 C0.66 0.33 1.32 0.66 2 1 C2.625 3.0625 2.625 3.0625 3 5 C1.02 5.33 -0.96 5.66 -3 6 C-3 4.35 -3 2.7 -3 1 C-3.66 1 -4.32 1 -5 1 C-5.33 1.66 -5.66 2.32 -6 3 C-6 2.01 -6 1.02 -6 0 C-3 -1 -3 -1 0 0 Z " fill="#05303B" transform="translate(473,243)"/>
<path d="M0 0 C1.98 0 3.96 0 6 0 C6 0.66 6 1.32 6 2 C4.68 2 3.36 2 2 2 C2 2.66 2 3.32 2 4 C2.99 4 3.98 4 5 4 C5 4.66 5 5.32 5 6 C4.01 6 3.02 6 2 6 C2 6.99 2 7.98 2 9 C1.34 9 0.68 9 0 9 C0 6.03 0 3.06 0 0 Z " fill="#2B4A4C" transform="translate(218,239)"/>
<path d="M0 0 C0.99 0 1.98 0 3 0 C3.33 2.97 3.66 5.94 4 9 C3.01 9.33 2.02 9.66 1 10 C0 9 0 9 -0.09765625 6.93359375 C-0.08605469 6.10988281 -0.07445312 5.28617188 -0.0625 4.4375 C-0.05347656 3.61121094 -0.04445312 2.78492188 -0.03515625 1.93359375 C-0.02355469 1.29550781 -0.01195312 0.65742188 0 0 Z " fill="#769094" transform="translate(255,239)"/>
<path d="M0 0 C1.65 0 3.3 0 5 0 C5 1.98 5 3.96 5 6 C3.35 6.33 1.7 6.66 0 7 C0 4.69 0 2.38 0 0 Z " fill="#456064" transform="translate(301,242)"/>
<path d="M0 0 C1.32 0 2.64 0 4 0 C4.98120464 3.05263664 4.98120464 4.94736336 4 8 C2.68 8.33 1.36 8.66 0 9 C0 6.03 0 3.06 0 0 Z " fill="#042734" transform="translate(508,240)"/>
<path d="M0 0 C2.475 0.495 2.475 0.495 5 1 C5.144375 1.61875 5.28875 2.2375 5.4375 2.875 C5.93152225 5.03258322 5.93152225 5.03258322 7 7 C5.1875 7.6875 5.1875 7.6875 3 8 C1.25 6.875 1.25 6.875 0 5 C-0.1875 2.3125 -0.1875 2.3125 0 0 Z " fill="#083541" transform="translate(376,239)"/>
<path d="M0 0 C0.3403125 0.928125 0.3403125 0.928125 0.6875 1.875 C2.37929835 4.61410209 3.99244161 5.05024472 7 6 C7 6.66 7 7.32 7 8 C5.35 8.66 3.7 9.32 2 10 C0.4375 8.375 0.4375 8.375 -1 6 C-0.6875 2.75 -0.6875 2.75 0 0 Z " fill="#144246" transform="translate(108,221)"/>
<path d="M0 0 C8.375 0 8.375 0 12 2 C10.68 2.99 9.36 3.98 8 5 C5.04590299 3.62845496 2.55991624 2.01136276 0 0 Z " fill="#275053" transform="translate(139,172)"/>
<path d="M0 0 C1.8125 0.1875 1.8125 0.1875 4 1 C5.01866229 2.65532623 6.01810813 4.32260138 7 6 C9.06700655 7.32793606 9.06700655 7.32793606 11 8 C9 9 9 9 5.875 8.0625 C4.92625 7.711875 3.9775 7.36125 3 7 C3 5.35 3 3.7 3 2 C2.01 1.67 1.02 1.34 0 1 C0 0.67 0 0.34 0 0 Z " fill="#062A2D" transform="translate(322,242)"/>
<path d="M0 0 C0.66 1.32 1.32 2.64 2 4 C0.1875 5.5625 0.1875 5.5625 -2 7 C-2.99 6.67 -3.98 6.34 -5 6 C-3.63016497 2.83884224 -3.0109362 2.0072908 0 0 Z " fill="#EBF8F9" transform="translate(163,164)"/>
<path d="M0 0 C1.32 0.66 2.64 1.32 4 2 C3.34 3.98 2.68 5.96 2 8 C-0.31 7.34 -2.62 6.68 -5 6 C-5 5.67 -5 5.34 -5 5 C-3.35 5 -1.7 5 0 5 C0 3.35 0 1.7 0 0 Z " fill="#265459" transform="translate(139,187)"/>
<path d="M0 0 C2.875 -0.125 2.875 -0.125 6 0 C6.66 0.66 7.32 1.32 8 2 C6 4 6 4 3.375 4.125 C2.59125 4.08375 1.8075 4.0425 1 4 C0.67 2.68 0.34 1.36 0 0 Z " fill="#E4F8F8" transform="translate(143,177)"/>
<path d="M0 0 C-1.45255699 3.82946843 -3.42895561 5.12050295 -7 7 C-6.67 5.02 -6.34 3.04 -6 1 C-3.92446352 0.4465236 -2.15634036 0 0 0 Z " fill="#1C4C4E" transform="translate(138,171)"/>
<path d="M0 0 C0.99 0 1.98 0 3 0 C3 1.65 3 3.3 3 5 C1.35 5.33 -0.3 5.66 -2 6 C-2 4.68 -2 3.36 -2 2 C-1.34 2 -0.68 2 0 2 C0 1.34 0 0.68 0 0 Z " fill="#264851" transform="translate(238,243)"/>
<path d="M0 0 C-1.13719419 3.41158256 -2.04342944 4.11854601 -5 6 C-5.66 6 -6.32 6 -7 6 C-6.67 4.02 -6.34 2.04 -6 0 C-2.25 -1.125 -2.25 -1.125 0 0 Z " fill="#06232A" transform="translate(435,242)"/>
<path d="M0 0 C2.00720923 0.28674418 4.0085944 0.61866701 6 1 C6 2.98 6 4.96 6 7 C5.67 7 5.34 7 5 7 C5 5.35 5 3.7 5 2 C4.01 2 3.02 2 2 2 C2 2.66 2 3.32 2 4 C1.34 4 0.68 4 0 4 C-0.33 4.99 -0.66 5.98 -1 7 C-1.04254356 5.00045254 -1.04080783 2.99958364 -1 1 C-0.67 0.67 -0.34 0.34 0 0 Z " fill="#638184" transform="translate(236,241)"/>
<path d="M0 0 C0.99 0.66 1.98 1.32 3 2 C2.40832031 1.97679687 1.81664063 1.95359375 1.20703125 1.9296875 C-3.33801959 1.82588536 -6.85940059 1.86291643 -11 4 C-10.67 3.01 -10.34 2.02 -10 1 C-6.47005387 -0.17664871 -3.70544587 -0.19850603 0 0 Z " fill="#10373F" transform="translate(112,141)"/>
<path d="M0 0 C0.99 0.66 1.98 1.32 3 2 C3 2.66 3 3.32 3 4 C3.66 4.33 4.32 4.66 5 5 C2.36 5 -0.28 5 -3 5 C-3 3.68 -3 2.36 -3 1 C-2.01 0.67 -1.02 0.34 0 0 Z " fill="#001B20" transform="translate(346,245)"/>
<path d="M0 0 C0.75 1.5625 0.75 1.5625 1 4 C-0.13084437 6.50286409 -1.52139516 8.67007722 -3 11 C-3.66 10.67 -4.32 10.34 -5 10 C-4.01 7.69 -3.02 5.38 -2 3 C-1.34 3 -0.68 3 0 3 C0 2.01 0 1.02 0 0 Z " fill="#0E3940" transform="translate(191,229)"/>
<path d="M0 0 C1.66611905 -0.042721 3.33382885 -0.04063832 5 0 C6 1 6 1 6.0625 3.5625 C6.041875 4.366875 6.02125 5.17125 6 6 C5.01 6.495 5.01 6.495 4 7 C3.67 5.35 3.34 3.7 3 2 C1.68 2.33 0.36 2.66 -1 3 C-0.67 2.01 -0.34 1.02 0 0 Z " fill="#D9F0F0" transform="translate(166,177)"/>
<path d="M0 0 C0.33 0.99 0.66 1.98 1 3 C-2.21311475 8.73770492 -2.21311475 8.73770492 -6 10 C-4.25 5.125 -4.25 5.125 -2 4 C-0.86649466 1.98330173 -0.86649466 1.98330173 0 0 Z " fill="#022328" transform="translate(576,165)"/>
<path d="M0 0 C1.32 0 2.64 0 4 0 C6.56687367 3.8503105 5.83288724 5.58569763 5 10 C4.67 10 4.34 10 4 10 C3.67 7.36 3.34 4.72 3 2 C2.01 1.67 1.02 1.34 0 1 C0 0.67 0 0.34 0 0 Z " fill="#0D383F" transform="translate(570,159)"/>
<path d="M0 0 C0.99 0.33 1.98 0.66 3 1 C3 3.97 3 6.94 3 10 C2.34 8.68 1.68 7.36 1 6 C0.46375 5.46375 -0.0725 4.9275 -0.625 4.375 C-1.07875 3.92125 -1.5325 3.4675 -2 3 C-2 2.34 -2 1.68 -2 1 C-1.34 0.67 -0.68 0.34 0 0 Z M1 3 C2 5 2 5 2 5 Z " fill="#80999C" transform="translate(283,241)"/>
<path d="M0 0 C0.66 0.33 1.32 0.66 2 1 C2.66 0.67 3.32 0.34 4 0 C6.125 0.4375 6.125 0.4375 8 1 C5.69 2.32 3.38 3.64 1 5 C0.34 3.68 -0.32 2.36 -1 1 C-0.67 0.67 -0.34 0.34 0 0 Z " fill="#D0E8EA" transform="translate(116,189)"/>
<path d="M0 0 C2.475 0.99 2.475 0.99 5 2 C5.33 1.34 5.66 0.68 6 0 C6 1.32 6 2.64 6 4 C2.7 4 -0.6 4 -4 4 C-2.68 2.68 -1.36 1.36 0 0 Z " fill="#2C5557" transform="translate(170,164)"/>
<path d="M0 0 C0 0.33 0 0.66 0 1 C-1.98 1 -3.96 1 -6 1 C-6.66 2.32 -7.32 3.64 -8 5 C-8.99 4.34 -9.98 3.68 -11 3 C-11 2.34 -11 1.68 -11 1 C-7.32589215 -0.17571451 -3.83070817 -0.07366746 0 0 Z " fill="#09080B" transform="translate(244,155)"/>
<path d="M0 0 C0.33 0.99 0.66 1.98 1 3 C0.34 3 -0.32 3 -1 3 C-1 3.99 -1 4.98 -1 6 C-2.32 5.67 -3.64 5.34 -5 5 C-4 2 -4 2 -1.9375 0.8125 C-1.298125 0.544375 -0.65875 0.27625 0 0 Z " fill="#001A3A" transform="translate(459,245)"/>
<path d="M0 0 C0 0.66 0 1.32 0 2 C-0.66 2 -1.32 2 -2 2 C-2.33 2.66 -2.66 3.32 -3 4 C-4.32 3.34 -5.64 2.68 -7 2 C-7 1.34 -7 0.68 -7 0 C-4.3333581 -1.33332095 -2.83319697 -0.67102033 0 0 Z " fill="#01363C" transform="translate(329,240)"/>
<path d="M0 0 C2.00720923 0.28674418 4.0085944 0.61866701 6 1 C5.01 1.33 4.02 1.66 3 2 C1.62804426 3.29355827 0.28817344 4.62298702 -1 6 C-1.042721 4.33388095 -1.04063832 2.66617115 -1 1 C-0.67 0.67 -0.34 0.34 0 0 Z " fill="#D7EBEC" transform="translate(144,188)"/>
<path d="M0 0 C2.58787727 2.58787727 2.62709152 4.42007861 3 8 C2.67 8.66 2.34 9.32 2 10 C1.34 10 0.68 10 0 10 C0 6.7 0 3.4 0 0 Z " fill="#E9FDFB" transform="translate(165,180)"/>
<path d="M0 0 C-2.85306797 2.32472205 -5.54074837 3.7508258 -9 5 C-7.93411431 2.09303901 -7.29651501 1.15567038 -4.5 -0.3125 C-2 -1 -2 -1 0 0 Z " fill="#194E50" transform="translate(170,168)"/>
<path d="M0 0 C2.31 0.33 4.62 0.66 7 1 C7 1.99 7 2.98 7 4 C4.69 3.67 2.38 3.34 0 3 C0 2.01 0 1.02 0 0 Z " fill="#072A32" transform="translate(484,245)"/>
<path d="M0 0 C-0.33 0.99 -0.66 1.98 -1 3 C-1.99 3.33 -2.98 3.66 -4 4 C-4 3.34 -4 2.68 -4 2 C-5.65 2 -7.3 2 -9 2 C-5.5647952 -0.29013653 -4.014669 -0.17842973 0 0 Z " fill="#00182F" transform="translate(459,240)"/>
<path d="M0 0 C0.33 0.99 0.66 1.98 1 3 C1.99 3.33 2.98 3.66 4 4 C1.64561267 5.42944945 0.51967567 6.08661261 -2.25 5.625 C-2.8275 5.41875 -3.405 5.2125 -4 5 C-3.34 5 -2.68 5 -2 5 C-1.34 3.35 -0.68 1.7 0 0 Z " fill="#031B2B" transform="translate(412,246)"/>
<path d="M0 0 C0.66 1.32 1.32 2.64 2 4 C-1.62326739 5.2077558 -2.64146369 4.54311128 -6 3 C-4 2 -2 1 0 0 Z " fill="#021D23" transform="translate(449,246)"/>
<path d="M0 0 C1.65 0 3.3 0 5 0 C5 1.65 5 3.3 5 5 C4.67 4.34 4.34 3.68 4 3 C2.68 3 1.36 3 0 3 C0 2.01 0 1.02 0 0 Z " fill="#133B3C" transform="translate(294,243)"/>
<path d="M0 0 C0.66 0.33 1.32 0.66 2 1 C2 1.66 2 2.32 2 3 C1.071875 3.185625 1.071875 3.185625 0.125 3.375 C-2.19120832 3.87197356 -2.19120832 3.87197356 -4 6 C-4.33 5.34 -4.66 4.68 -5 4 C-3 1 -3 1 0 0 Z " fill="#EDFBFC" transform="translate(122,186)"/>
<path d="M0 0 C2.31 0 4.62 0 7 0 C6.67 0.99 6.34 1.98 6 3 C3.03 2.505 3.03 2.505 0 2 C0 1.34 0 0.68 0 0 Z " fill="#0B3235" transform="translate(564,172)"/>
<path d="M0 0 C1.65 0 3.3 0 5 0 C5 0.99 5 1.98 5 3 C3.02 3.99 3.02 3.99 1 5 C0.67 3.35 0.34 1.7 0 0 Z " fill="#D9EEEF" transform="translate(164,163)"/>
<path d="M0 0 C2.15377564 2.62198774 3.40072174 4.64404172 4 8 C3.34 8 2.68 8 2 8 C2 7.01 2 6.02 2 5 C1.01 5 0.02 5 -1 5 C-0.67 3.35 -0.34 1.7 0 0 Z " fill="#103B44" transform="translate(189,149)"/>
<path d="" fill="#00FFFF" transform="translate(0,0)"/>
<path d="" fill="#FFFFFF" transform="translate(0,0)"/>
<path d="" fill="#000000" transform="translate(0,0)"/>
<path d="" fill="#FFFFFF" transform="translate(0,0)"/>
<path d="" fill="#FFFFFF" transform="translate(0,0)"/>
<path d="" fill="#000000" transform="translate(0,0)"/>
<path d="" fill="#FFFFFF" transform="translate(0,0)"/>
<path d="" fill="#FFFFFF" transform="translate(0,0)"/>
<path d="" fill="#FFFFFF" transform="translate(0,0)"/>
<path d="" fill="#FFFFFF" transform="translate(0,0)"/>
<path d="" fill="#FFFFFF" transform="translate(0,0)"/>
<path d="" fill="#FFFFFF" transform="translate(0,0)"/>
<path d="" fill="#000000" transform="translate(0,0)"/>
<path d="" fill="#FFFFFF" transform="translate(0,0)"/>
<path d="" fill="#FFFFFF" transform="translate(0,0)"/>
<path d="" fill="#FFFFFF" transform="translate(0,0)"/>
<path d="" fill="#FFFFFF" transform="translate(0,0)"/>
<path d="" fill="#FFFFFF" transform="translate(0,0)"/>
<path d="" fill="#FFFFFF" transform="translate(0,0)"/>
<path d="" fill="#FFFFFF" transform="translate(0,0)"/>
<path d="" fill="#FFFFFF" transform="translate(0,0)"/>
<path d="" fill="#FFFFFF" transform="translate(0,0)"/>
<path d="" fill="#FFFFFF" transform="translate(0,0)"/>
<path d="" fill="#FFFFFF" transform="translate(0,0)"/>
<path d="" fill="#FFFFFF" transform="translate(0,0)"/>
<path d="" fill="#FFFFFF" transform="translate(0,0)"/>
<path d="" fill="#FFFFFF" transform="translate(0,0)"/>
<path d="" fill="#FFFFFF" transform="translate(0,0)"/>
<path d="" fill="#FFFFFF" transform="translate(0,0)"/>
<path d="" fill="#FFFFFF" transform="translate(0,0)"/>
<path d="" fill="#FFFFFF" transform="translate(0,0)"/>
<path d="" fill="#FFFFFF" transform="translate(0,0)"/>
<path d="" fill="#FFFFFF" transform="translate(0,0)"/>
<path d="" fill="#000000" transform="translate(0,0)"/>
<path d="" fill="#FFFFFF" transform="translate(0,0)"/>
<path d="" fill="#FFFFFF" transform="translate(0,0)"/>
<path d="" fill="#FFFFFF" transform="translate(0,0)"/>
<path d="" fill="#FFFFFF" transform="translate(0,0)"/>
<path d="" fill="#FFFFFF" transform="translate(0,0)"/>
<path d="" fill="#FFFFFF" transform="translate(0,0)"/>
<path d="" fill="#FFFFFF" transform="translate(0,0)"/>
<path d="" fill="#FFFFFF" transform="translate(0,0)"/>
<path d="" fill="#FFFFFF" transform="translate(0,0)"/>
<path d="" fill="#FFFFFF" transform="translate(0,0)"/>
<path d="" fill="#FFFFFF" transform="translate(0,0)"/>
<path d="" fill="#FFFFFF" transform="translate(0,0)"/>
<path d="" fill="#FFFFFF" transform="translate(0,0)"/>
<path d="" fill="#FFFFFF" transform="translate(0,0)"/>
<path d="" fill="#FFFFFF" transform="translate(0,0)"/>
<path d="" fill="#FFFFFF" transform="translate(0,0)"/>
<path d="" fill="#FFFFFF" transform="translate(0,0)"/>
<path d="" fill="#FFFFFF" transform="translate(0,0)"/>
<path d="" fill="#FFFFFF" transform="translate(0,0)"/>
<path d="" fill="#FFFFFF" transform="translate(0,0)"/>
<path d="" fill="#FFFFFF" transform="translate(0,0)"/>
<path d="" fill="#FFFFFF" transform="translate(0,0)"/>
<path d="" fill="#FFFFFF" transform="translate(0,0)"/>
<path d="" fill="#FFFFFF" transform="translate(0,0)"/>
<path d="" fill="#FFFFFF" transform="translate(0,0)"/>
<path d="" fill="#FFFFFF" transform="translate(0,0)"/>
<path d="" fill="#FFFFFF" transform="translate(0,0)"/>
<path d="" fill="#000000" transform="translate(0,0)"/>
<path d="" fill="#FFFFFF" transform="translate(0,0)"/>
<path d="" fill="#FFFFFF" transform="translate(0,0)"/>
<path d="" fill="#000000" transform="translate(0,0)"/>
<path d="" fill="#FFFFFF" transform="translate(0,0)"/>
<path d="" fill="#FFFFFF" transform="translate(0,0)"/>
<path d="" fill="#FFFFFF" transform="translate(0,0)"/>
<path d="" fill="#FFFFFF" transform="translate(0,0)"/>
<path d="" fill="#FFFFFF" transform="translate(0,0)"/>
<path d="" fill="#FFFFFF" transform="translate(0,0)"/>
<path d="" fill="#FFFFFF" transform="translate(0,0)"/>
<path d="" fill="#FFFFFF" transform="translate(0,0)"/>
<path d="" fill="#FFFFFF" transform="translate(0,0)"/>
<path d="" fill="#FFFFFF" transform="translate(0,0)"/>
<path d="" fill="#FFFFFF" transform="translate(0,0)"/>
<path d="" fill="#FFFFFF" transform="translate(0,0)"/>
<path d="" fill="#FFFFFF" transform="translate(0,0)"/>
<path d="" fill="#000000" transform="translate(0,0)"/>
</svg>
